<svg width="549" height="225" viewBox="0 0 549 225" fill="none" xmlns="http://www.w3.org/2000/svg">
<path d="M29.34 66.66C31.6867 66.66 33.85 66.2567 35.83 65.45C37.8833 64.57 39.6433 63.3967 41.11 61.93C42.5767 60.4633 43.7133 58.74 44.52 56.76C45.4 54.78 45.84 52.6167 45.84 50.27C45.84 47.9233 45.4367 45.7233 44.63 43.67C43.8233 41.6167 42.6867 39.8567 41.22 38.39C39.7533 36.85 37.9933 35.6767 35.94 34.87C33.96 33.99 31.76 33.55 29.34 33.55C26.9933 33.55 24.83 33.99 22.85 34.87C20.87 35.75 19.1467 36.96 17.68 38.5C16.2133 39.9667 15.04 41.7267 14.16 43.78C13.3533 45.76 12.95 47.9233 12.95 50.27C12.95 52.5433 13.3533 54.7067 14.16 56.76C15.04 58.74 16.2133 60.4633 17.68 61.93C19.1467 63.3967 20.87 64.57 22.85 65.45C24.9033 66.2567 27.0667 66.66 29.34 66.66ZM46.06 77V71.72C43.4933 74.14 40.7067 75.8633 37.7 76.89C34.6933 77.9167 31.43 78.43 27.91 78.43C23.8767 78.43 20.21 77.6967 16.91 76.23C13.61 74.7633 10.75 72.7833 8.33 70.29C5.98333 67.7233 4.15 64.7533 2.83 61.38C1.51 57.9333 0.85 54.23 0.85 50.27C0.85 46.2367 1.54667 42.4967 2.94 39.05C4.40667 35.6033 6.38667 32.5967 8.88 30.03C11.4467 27.4633 14.4533 25.4467 17.9 23.98C21.42 22.5133 25.1967 21.78 29.23 21.78C33.2633 21.78 37.0033 22.5133 40.45 23.98C43.97 25.3733 47.0133 27.3167 49.58 29.81C52.22 32.3033 54.2733 35.2733 55.74 38.72C57.28 42.1667 58.05 45.87 58.05 49.83V77H46.06ZM67.907 23.43H80.007V77H67.907V23.43ZM66.587 9.46C66.587 7.33333 67.2837 5.57333 68.677 4.17999C70.0704 2.71333 71.8304 1.98 73.957 1.98C76.0837 1.98 77.8437 2.71333 79.237 4.17999C80.7037 5.57333 81.437 7.33333 81.437 9.46C81.437 11.5867 80.7037 13.3833 79.237 14.85C77.8437 16.2433 76.0837 16.94 73.957 16.94C71.8304 16.94 70.0704 16.2433 68.677 14.85C67.2837 13.3833 66.587 11.5867 66.587 9.46ZM90.5859 50.27C90.5859 45.87 91.2459 41.9833 92.5659 38.61C93.9593 35.2367 95.9026 32.4133 98.3959 30.14C100.889 27.8667 103.859 26.18 107.306 25.08C110.826 23.9067 114.713 23.32 118.966 23.32V35.09C114.126 35.09 110.203 36.3367 107.196 38.83C104.189 41.25 102.686 44.99 102.686 50.05V77H90.5859V50.27ZM184.104 65.23C187.037 65.23 189.604 64.8267 191.804 64.02C194.004 63.14 195.837 62.0033 197.304 60.61C198.844 59.1433 199.981 57.4567 200.714 55.55C201.447 53.6433 201.814 51.59 201.814 49.39C201.814 47.0433 201.411 44.9167 200.604 43.01C199.797 41.03 198.697 39.3433 197.304 37.95C195.911 36.5567 194.224 35.4567 192.244 34.65C190.337 33.8433 188.211 33.44 185.864 33.44C183.444 33.44 181.244 33.88 179.264 34.76C177.357 35.64 175.707 36.85 174.314 38.39C172.994 39.93 171.967 41.7267 171.234 43.78C170.501 45.8333 170.134 48.0333 170.134 50.38V65.23H184.104ZM158.034 49.39C158.034 45.3567 158.731 41.6533 160.124 38.28C161.591 34.9067 163.571 32.01 166.064 29.59C168.557 27.0967 171.491 25.1533 174.864 23.76C178.311 22.3667 182.014 21.67 185.974 21.67C189.934 21.67 193.601 22.3667 196.974 23.76C200.421 25.1533 203.391 27.0967 205.884 29.59C208.377 32.01 210.321 34.9067 211.714 38.28C213.181 41.6533 213.914 45.3567 213.914 49.39C213.914 53.2033 213.291 56.7967 212.044 60.17C210.797 63.5433 208.927 66.4767 206.434 68.97C203.941 71.4633 200.824 73.4433 197.084 74.91C193.417 76.3033 189.127 77 184.214 77H170.134V100.32H158.034V49.39ZM222.057 52.58V23.43H234.157V50.49C234.157 52.7633 234.414 54.9267 234.927 56.98C235.441 58.96 236.247 60.6833 237.347 62.15C238.447 63.6167 239.877 64.79 241.637 65.67C243.471 66.4767 245.671 66.88 248.237 66.88C250.804 66.88 252.967 66.4767 254.727 65.67C256.561 64.79 258.027 63.6167 259.127 62.15C260.227 60.6833 261.034 58.96 261.547 56.98C262.061 54.9267 262.317 52.7633 262.317 50.49V23.43H274.417V52.58C274.417 56.1733 273.794 59.5467 272.547 62.7C271.301 65.8533 269.504 68.64 267.157 71.06C264.884 73.4067 262.134 75.2767 258.907 76.67C255.754 77.99 252.197 78.65 248.237 78.65C244.277 78.65 240.684 77.99 237.457 76.67C234.304 75.2767 231.554 73.4067 229.207 71.06C226.934 68.64 225.174 65.8533 223.927 62.7C222.681 59.5467 222.057 56.1733 222.057 52.58ZM284.912 50.27C284.912 45.87 285.572 41.9833 286.892 38.61C288.285 35.2367 290.229 32.4133 292.722 30.14C295.215 27.8667 298.185 26.18 301.632 25.08C305.152 23.9067 309.039 23.32 313.292 23.32V35.09C308.452 35.09 304.529 36.3367 301.522 38.83C298.515 41.25 297.012 44.99 297.012 50.05V77H284.912V50.27ZM320.456 23.43H332.556V77H320.456V23.43ZM319.136 9.46C319.136 7.33333 319.833 5.57333 321.226 4.17999C322.619 2.71333 324.379 1.98 326.506 1.98C328.633 1.98 330.393 2.71333 331.786 4.17999C333.253 5.57333 333.986 7.33333 333.986 9.46C333.986 11.5867 333.253 13.3833 331.786 14.85C330.393 16.2433 328.633 16.94 326.506 16.94C324.379 16.94 322.619 16.2433 321.226 14.85C319.833 13.3833 319.136 11.5867 319.136 9.46ZM343.135 26.95C343.135 22.55 343.795 18.6633 345.115 15.29C346.508 11.9167 348.451 9.09333 350.945 6.82C353.438 4.54666 356.445 2.86 359.965 1.76C363.485 0.586663 367.371 -5.24521e-06 371.625 -5.24521e-06V11.77C367.811 11.77 364.365 12.7233 361.285 14.63C358.205 16.4633 356.261 19.36 355.455 23.32H371.625V35.09H355.235V77H343.135V26.95ZM379.323 23.43H391.423V77H379.323V23.43ZM378.003 9.46C378.003 7.33333 378.7 5.57333 380.093 4.17999C381.486 2.71333 383.246 1.98 385.373 1.98C387.5 1.98 389.26 2.71333 390.653 4.17999C392.12 5.57333 392.853 7.33333 392.853 9.46C392.853 11.5867 392.12 13.3833 390.653 14.85C389.26 16.2433 387.5 16.94 385.373 16.94C383.246 16.94 381.486 16.2433 380.093 14.85C378.7 13.3833 378.003 11.5867 378.003 9.46ZM443.362 44.33C443.142 42.4233 442.555 40.7733 441.602 39.38C440.649 37.9133 439.475 36.7033 438.082 35.75C436.689 34.7233 435.112 33.9533 433.352 33.44C431.665 32.9267 429.942 32.67 428.182 32.67C426.422 32.67 424.699 32.9633 423.012 33.55C421.399 34.0633 419.895 34.8333 418.502 35.86C417.182 36.8133 416.045 38.0233 415.092 39.49C414.212 40.9567 413.662 42.57 413.442 44.33H443.362ZM451.722 69.3C448.495 72.5267 444.902 74.91 440.942 76.45C436.982 77.9167 432.729 78.65 428.182 78.65C424.075 78.65 420.299 77.9533 416.852 76.56C413.479 75.0933 410.545 73.1133 408.052 70.62C405.632 68.0533 403.725 65.0467 402.332 61.6C401.012 58.1533 400.352 54.3767 400.352 50.27C400.352 46.31 401.049 42.6067 402.442 39.16C403.835 35.64 405.742 32.5967 408.162 30.03C410.655 27.4633 413.589 25.4467 416.962 23.98C420.409 22.5133 424.149 21.78 428.182 21.78C434.049 21.78 439.255 23.2833 443.802 26.29C448.422 29.2967 451.795 33.55 453.922 39.05C454.875 41.3967 455.462 43.5967 455.682 45.65C455.902 47.7033 456.012 49.9767 456.012 52.47C456.012 52.8367 455.975 53.24 455.902 53.68C455.902 54.0467 455.865 54.4133 455.792 54.78H413.442C413.589 56.76 414.065 58.52 414.872 60.06C415.752 61.6 416.852 62.92 418.172 64.02C419.492 65.12 421.032 65.9633 422.792 66.55C424.552 67.0633 426.349 67.32 428.182 67.32C431.335 67.32 434.232 66.8433 436.872 65.89C439.512 64.9367 442.005 63.3967 444.352 61.27L451.722 69.3ZM464.307 50.27C464.307 45.87 464.967 41.9833 466.287 38.61C467.68 35.2367 469.623 32.4133 472.117 30.14C474.61 27.8667 477.58 26.18 481.027 25.08C484.547 23.9067 488.433 23.32 492.687 23.32V35.09C487.847 35.09 483.923 36.3367 480.917 38.83C477.91 41.25 476.407 44.99 476.407 50.05V77H464.307V50.27Z" fill="#495780"/>
<path d="M2.5 122.11H14.6V145.43H30.88V157.2H14.6V172.38C14.6 177.513 16.1033 181.29 19.11 183.71C22.1167 186.057 26.04 187.23 30.88 187.23V199C28.9733 199 27.03 198.927 25.05 198.78C23.07 198.56 21.1267 198.157 19.22 197.57C16.4333 196.69 13.9767 195.407 11.85 193.72C9.79667 191.96 8.07333 189.943 6.68 187.67C5.28667 185.397 4.22333 182.94 3.49 180.3C2.83 177.587 2.5 174.873 2.5 172.16V122.11ZM79.9538 166.33C79.7338 164.423 79.1471 162.773 78.1938 161.38C77.2404 159.913 76.0671 158.703 74.6738 157.75C73.2804 156.723 71.7038 155.953 69.9438 155.44C68.2571 154.927 66.5338 154.67 64.7738 154.67C63.0138 154.67 61.2904 154.963 59.6038 155.55C57.9904 156.063 56.4871 156.833 55.0938 157.86C53.7738 158.813 52.6371 160.023 51.6838 161.49C50.8038 162.957 50.2538 164.57 50.0338 166.33H79.9538ZM88.3138 191.3C85.0871 194.527 81.4938 196.91 77.5338 198.45C73.5738 199.917 69.3204 200.65 64.7738 200.65C60.6671 200.65 56.8904 199.953 53.4438 198.56C50.0704 197.093 47.1371 195.113 44.6438 192.62C42.2238 190.053 40.3171 187.047 38.9238 183.6C37.6038 180.153 36.9438 176.377 36.9438 172.27C36.9438 168.31 37.6404 164.607 39.0338 161.16C40.4271 157.64 42.3338 154.597 44.7538 152.03C47.2471 149.463 50.1804 147.447 53.5538 145.98C57.0004 144.513 60.7404 143.78 64.7738 143.78C70.6404 143.78 75.8471 145.283 80.3938 148.29C85.0138 151.297 88.3871 155.55 90.5138 161.05C91.4671 163.397 92.0538 165.597 92.2738 167.65C92.4938 169.703 92.6038 171.977 92.6038 174.47C92.6038 174.837 92.5671 175.24 92.4938 175.68C92.4938 176.047 92.4571 176.413 92.3838 176.78H50.0338C50.1804 178.76 50.6571 180.52 51.4638 182.06C52.3438 183.6 53.4438 184.92 54.7638 186.02C56.0838 187.12 57.6238 187.963 59.3838 188.55C61.1438 189.063 62.9404 189.32 64.7738 189.32C67.9271 189.32 70.8238 188.843 73.4638 187.89C76.1038 186.937 78.5971 185.397 80.9438 183.27L88.3138 191.3ZM147.758 192.62C145.192 195.48 142.075 197.57 138.408 198.89C134.815 200.137 131.112 200.76 127.298 200.76C123.192 200.76 119.378 200.063 115.858 198.67C112.412 197.203 109.405 195.187 106.838 192.62C104.272 190.053 102.255 187.047 100.788 183.6C99.3951 180.08 98.6984 176.267 98.6984 172.16C98.6984 168.053 99.4318 164.277 100.898 160.83C102.365 157.383 104.345 154.377 106.838 151.81C109.405 149.243 112.448 147.263 115.968 145.87C119.488 144.403 123.265 143.67 127.298 143.67C131.112 143.67 134.815 144.33 138.408 145.65C142.075 146.897 145.192 148.95 147.758 151.81L139.838 160.17C138.078 158.483 136.135 157.31 134.008 156.65C131.882 155.917 129.645 155.55 127.298 155.55C125.025 155.55 122.862 155.99 120.808 156.87C118.828 157.75 117.068 158.923 115.528 160.39C114.062 161.857 112.888 163.617 112.008 165.67C111.202 167.65 110.798 169.813 110.798 172.16C110.798 174.507 111.202 176.707 112.008 178.76C112.888 180.74 114.062 182.5 115.528 184.04C116.995 185.507 118.718 186.68 120.698 187.56C122.752 188.44 124.952 188.88 127.298 188.88C129.645 188.88 131.882 188.55 134.008 187.89C136.135 187.157 138.078 185.947 139.838 184.26L147.758 192.62ZM155.469 122.11H167.569V149.17C169.695 147.337 172.079 145.98 174.719 145.1C177.432 144.22 180.182 143.78 182.969 143.78C185.755 143.78 188.432 144.183 190.999 144.99C193.639 145.797 196.022 146.97 198.149 148.51C200.275 149.977 202.109 151.81 203.649 154.01C205.189 156.21 206.252 158.703 206.839 161.49C207.572 164.643 207.939 167.943 207.939 171.39V199H195.839V172.05C195.839 169.703 195.582 167.54 195.069 165.56C194.555 163.58 193.712 161.857 192.539 160.39C191.439 158.85 189.972 157.677 188.139 156.87C186.379 155.99 184.215 155.55 181.649 155.55C179.082 155.55 176.882 155.99 175.049 156.87C173.289 157.75 171.859 158.923 170.759 160.39C169.659 161.857 168.852 163.617 168.339 165.67C167.825 167.65 167.569 169.777 167.569 172.05V199H155.469V122.11ZM217.331 169.85C217.331 166.257 217.954 162.883 219.201 159.73C220.448 156.577 222.208 153.827 224.481 151.48C226.828 149.06 229.578 147.19 232.731 145.87C235.958 144.477 239.551 143.78 243.511 143.78C247.471 143.78 251.028 144.477 254.181 145.87C257.408 147.19 260.158 149.06 262.431 151.48C264.778 153.827 266.574 156.577 267.821 159.73C269.068 162.883 269.691 166.257 269.691 169.85V199H257.591V171.94C257.591 169.593 257.334 167.43 256.821 165.45C256.308 163.47 255.501 161.747 254.401 160.28C253.301 158.813 251.834 157.677 250.001 156.87C248.241 155.99 246.078 155.55 243.511 155.55C240.944 155.55 238.744 155.99 236.911 156.87C235.151 157.677 233.721 158.813 232.621 160.28C231.521 161.747 230.714 163.47 230.201 165.45C229.688 167.43 229.431 169.593 229.431 171.94V199H217.331V169.85ZM306.586 188.88C308.932 188.88 311.096 188.44 313.076 187.56C315.129 186.68 316.889 185.507 318.356 184.04C319.822 182.5 320.959 180.74 321.766 178.76C322.646 176.707 323.086 174.507 323.086 172.16C323.086 169.813 322.646 167.65 321.766 165.67C320.959 163.617 319.822 161.857 318.356 160.39C316.889 158.85 315.129 157.64 313.076 156.76C311.096 155.88 308.932 155.44 306.586 155.44C304.239 155.44 302.039 155.88 299.986 156.76C298.006 157.64 296.282 158.85 294.816 160.39C293.349 161.857 292.212 163.617 291.406 165.67C290.599 167.65 290.196 169.813 290.196 172.16C290.196 174.507 290.599 176.707 291.406 178.76C292.212 180.74 293.349 182.5 294.816 184.04C296.282 185.507 298.006 186.68 299.986 187.56C302.039 188.44 304.239 188.88 306.586 188.88ZM277.986 172.16C277.986 168.053 278.719 164.277 280.186 160.83C281.652 157.383 283.669 154.377 286.236 151.81C288.802 149.243 291.809 147.263 295.256 145.87C298.776 144.403 302.552 143.67 306.586 143.67C310.692 143.67 314.469 144.403 317.916 145.87C321.436 147.263 324.442 149.243 326.936 151.81C329.502 154.377 331.519 157.383 332.986 160.83C334.452 164.277 335.186 168.053 335.186 172.16C335.186 176.193 334.452 179.97 332.986 183.49C331.519 186.937 329.502 189.943 326.936 192.51C324.442 195.077 321.436 197.093 317.916 198.56C314.469 199.953 310.692 200.65 306.586 200.65C302.552 200.65 298.776 199.953 295.256 198.56C291.809 197.093 288.802 195.077 286.236 192.51C283.669 189.943 281.652 186.937 280.186 183.49C278.719 179.97 277.986 176.193 277.986 172.16ZM343.994 122H356.094V199H343.994V122ZM393.49 188.88C395.837 188.88 398 188.44 399.98 187.56C402.033 186.68 403.793 185.507 405.26 184.04C406.727 182.5 407.863 180.74 408.67 178.76C409.55 176.707 409.99 174.507 409.99 172.16C409.99 169.813 409.55 167.65 408.67 165.67C407.863 163.617 406.727 161.857 405.26 160.39C403.793 158.85 402.033 157.64 399.98 156.76C398 155.88 395.837 155.44 393.49 155.44C391.143 155.44 388.943 155.88 386.89 156.76C384.91 157.64 383.187 158.85 381.72 160.39C380.253 161.857 379.117 163.617 378.31 165.67C377.503 167.65 377.1 169.813 377.1 172.16C377.1 174.507 377.503 176.707 378.31 178.76C379.117 180.74 380.253 182.5 381.72 184.04C383.187 185.507 384.91 186.68 386.89 187.56C388.943 188.44 391.143 188.88 393.49 188.88ZM364.89 172.16C364.89 168.053 365.623 164.277 367.09 160.83C368.557 157.383 370.573 154.377 373.14 151.81C375.707 149.243 378.713 147.263 382.16 145.87C385.68 144.403 389.457 143.67 393.49 143.67C397.597 143.67 401.373 144.403 404.82 145.87C408.34 147.263 411.347 149.243 413.84 151.81C416.407 154.377 418.423 157.383 419.89 160.83C421.357 164.277 422.09 168.053 422.09 172.16C422.09 176.193 421.357 179.97 419.89 183.49C418.423 186.937 416.407 189.943 413.84 192.51C411.347 195.077 408.34 197.093 404.82 198.56C401.373 199.953 397.597 200.65 393.49 200.65C389.457 200.65 385.68 199.953 382.16 198.56C378.713 197.093 375.707 195.077 373.14 192.51C370.573 189.943 368.557 186.937 367.09 183.49C365.623 179.97 364.89 176.193 364.89 172.16ZM441.238 171.61C441.238 173.957 441.642 176.083 442.448 177.99C443.328 179.897 444.502 181.547 445.968 182.94C447.435 184.333 449.158 185.397 451.138 186.13C453.118 186.863 455.245 187.23 457.518 187.23C459.865 187.23 462.028 186.863 464.008 186.13C465.988 185.397 467.712 184.37 469.178 183.05C470.718 181.657 471.892 180.007 472.698 178.1C473.578 176.193 474.018 174.03 474.018 171.61C474.018 169.263 473.578 167.1 472.698 165.12C471.892 163.14 470.755 161.453 469.288 160.06C467.822 158.593 466.062 157.493 464.008 156.76C462.028 155.953 459.865 155.55 457.518 155.55C455.245 155.55 453.082 155.953 451.028 156.76C449.048 157.567 447.325 158.703 445.858 160.17C444.465 161.563 443.328 163.25 442.448 165.23C441.642 167.137 441.238 169.263 441.238 171.61ZM439.588 204.61C441.935 206.957 444.575 208.79 447.508 210.11C450.515 211.503 453.705 212.2 457.078 212.2C460.525 212.2 463.678 211.393 466.538 209.78C469.472 208.24 471.598 205.82 472.918 202.52C473.505 200.98 473.835 199.403 473.908 197.79C473.982 196.103 474.018 194.453 474.018 192.84C471.305 195.113 468.555 196.727 465.768 197.68C462.982 198.56 459.828 199 456.308 199C452.348 199 448.682 198.34 445.308 197.02C442.008 195.627 439.148 193.72 436.728 191.3C434.308 188.807 432.402 185.91 431.008 182.61C429.688 179.237 429.028 175.57 429.028 171.61C429.028 167.577 429.762 163.873 431.228 160.5C432.695 157.053 434.712 154.12 437.278 151.7C439.918 149.207 442.962 147.263 446.408 145.87C449.855 144.477 453.558 143.78 457.518 143.78C463.972 143.78 469.545 145.43 474.238 148.73C479.005 152.03 482.488 156.723 484.688 162.81C485.422 164.79 485.862 166.99 486.008 169.41C486.155 171.83 486.228 174.103 486.228 176.23V193.28C486.228 195.407 486.082 197.68 485.788 200.1C485.495 202.52 484.945 204.72 484.138 206.7C483.038 209.413 481.498 211.833 479.518 213.96C477.612 216.087 475.448 217.883 473.028 219.35C470.608 220.89 468.005 222.027 465.218 222.76C462.432 223.567 459.608 223.97 456.748 223.97C452.055 223.97 447.545 223.09 443.218 221.33C438.965 219.57 435.188 216.967 431.888 213.52L439.588 204.61ZM503.694 205.49C506.26 207.837 508.79 209.56 511.284 210.66C513.777 211.76 516.784 212.31 520.304 212.31C523.457 212.31 526.39 211.54 529.104 210C531.817 208.533 533.76 206.26 534.934 203.18C535.52 201.713 535.814 200.173 535.814 198.56C535.887 196.873 535.924 195.26 535.924 193.72C531.45 197.313 526.317 199.11 520.524 199.11C517.81 199.11 515.134 198.707 512.494 197.9C509.927 197.093 507.544 195.957 505.344 194.49C503.217 192.95 501.347 191.08 499.734 188.88C498.194 186.68 497.13 184.187 496.544 181.4C495.884 178.173 495.554 174.873 495.554 171.5V145.43H507.654V170.84C507.654 173.113 507.91 175.277 508.424 177.33C508.937 179.31 509.744 181.07 510.844 182.61C511.944 184.077 513.374 185.25 515.134 186.13C516.967 186.937 519.167 187.34 521.734 187.34C524.3 187.34 526.464 186.937 528.224 186.13C530.057 185.25 531.524 184.077 532.624 182.61C533.797 181.143 534.64 179.42 535.154 177.44C535.667 175.387 535.924 173.187 535.924 170.84V145.43H548.024V195.37C548.024 197.497 547.877 199.623 547.584 201.75C547.364 203.877 546.85 205.93 546.044 207.91C544.944 210.55 543.514 212.86 541.754 214.84C539.994 216.82 537.977 218.507 535.704 219.9C533.43 221.293 530.974 222.32 528.334 222.98C525.767 223.713 523.09 224.08 520.304 224.08C515.757 224.08 511.32 223.273 506.994 221.66C502.667 220.047 498.89 217.627 495.664 214.4L503.694 205.49Z" fill="black"/>
</svg>
