<svg width="99" height="38" viewBox="0 0 99 38" fill="none" xmlns="http://www.w3.org/2000/svg">
<g clip-path="url(#clip0_46_110)">
<path d="M13.9996 18.7C13.9996 21.2 11.9996 23.2 9.49961 23.2C6.99961 23.2 4.99961 21.2 4.99961 18.7C4.99961 16.2 6.99961 14.2 9.49961 14.2H13.9996V18.7ZM18.9996 0.200012H13.9996V9.30001C12.2996 9.30001 10.5996 9.30001 9.49961 9.30001C4.29961 9.30001 0.0996094 13.5 0.0996094 18.7C0.0996094 23.9 4.29961 28.1 9.49961 28.1C14.6996 28.1 18.8996 23.9 18.8996 18.7C18.8996 16.1 18.8996 9.30001 18.8996 9.30001L18.9996 0.200012Z" fill="#231F20"/>
<path d="M68.7004 23.2C71.2004 23.2 73.2004 21.2 73.2004 18.7C73.2004 16.2 71.2004 14.2 68.7004 14.2C66.2004 14.2 64.2004 16.2 64.2004 18.7C64.3004 21.2 66.3004 23.2 68.7004 23.2ZM59.4004 18.7C59.4004 13.5 63.6004 9.29999 68.8004 9.29999C74.0004 9.29999 78.2004 13.5 78.2004 18.7C78.2004 23.9 74.0004 28.1 68.8004 28.1C63.6004 28.1 59.4004 23.9 59.4004 18.7Z" fill="#231F20"/>
<path d="M93.9002 18.7C93.9002 16.3 91.9002 14.3 89.5002 14.3C87.1002 14.3 85.1002 16.3 85.1002 18.7C85.1002 19.9 85.1002 27.7 85.1002 27.7C82.6002 27.7 80.2002 27.7 80.2002 27.7C80.2002 27.7 80.2002 21.3 80.2002 18.7C80.2002 13.5 84.4002 9.29999 89.6002 9.29999C94.8002 9.29999 99.0002 13.5 99.0002 18.7C99.0002 21.3 99.0002 27.7 99.0002 27.7C99.0002 27.7 96.6002 27.7 94.1002 27.7C93.9002 27.7 93.9002 19.9 93.9002 18.7Z" fill="#231F20"/>
<path d="M47.9004 15.5C47.2004 15 47.4004 14.2 48.6004 13.9C50.1004 13.5 52.7004 13.8 54.9004 14.8L57.2004 11.6C56.2004 10.8 54.0004 9.70001 50.8004 9.50001C50.8004 9.50001 45.4004 8.80001 43.2004 12.9C43.2004 12.9 41.3004 16.7 45.1004 19.1C47.4004 20.5 51.4004 21.1 52.7004 21.7C53.7004 22.3 53.4004 23.4 51.9004 23.7C49.3004 24.3 45.9004 22.8 44.8004 22L42.4004 25.3C44.0004 26.5 46.0004 27.6 49.2004 28.1C49.2004 28.1 54.3004 29 57.1004 25.5C57.6004 24.9 59.9004 20.6 55.3004 18.1C52.9004 16.8 49.1004 16.2 47.9004 15.5Z" fill="#231F20"/>
<path d="M24.8996 31.3C25.0996 31.4 27.3996 33 29.5996 33C34.9996 33.1 35.2996 27.5 35.2996 26.2C34.2996 27.3 32.1996 28 30.8996 28C25.6996 28 21.5996 24 21.5996 18.8C21.5996 16.2 21.5996 9.70001 21.5996 9.70001C21.5996 9.70001 23.9996 9.70001 26.4996 9.70001C26.4996 9.70001 26.4996 17.7 26.4996 18.8C26.4996 21.2 28.4996 23.2 30.8996 23.2C33.2996 23.2 35.2996 21.2 35.2996 18.8C35.2996 17.8 35.2996 9.70001 35.2996 9.70001C37.7996 9.70001 40.1996 9.70001 40.1996 9.70001V18.8C40.1996 26.9 40.5996 35.2 32.6996 37.1C26.7996 38.5 22.5996 34.8 22.2996 34.6L24.8996 31.3Z" fill="#231F20"/>
</g>
<defs>
<clipPath id="clip0_46_110">
<rect width="99" height="37.7" fill="white"/>
</clipPath>
</defs>
</svg>
