<svg width="68" height="71" viewBox="0 0 68 71" fill="none" xmlns="http://www.w3.org/2000/svg">
<g clip-path="url(#clip0_600_246)">
<path d="M43.9957 70.6152H7.81389C3.16545 70.6152 0.80957 68.8793 0.80957 65.4556C0.80957 56.8377 10.8922 47.6107 25.9032 47.6107C40.9142 47.6107 51 56.8377 51 65.4556C51 68.8795 48.6442 70.6152 43.9957 70.6152ZM25.9048 42.5863C19.1061 42.5863 13.7809 36.8726 13.7809 29.5778C13.7809 22.5764 19.2199 16.8807 25.9048 16.8807C32.5897 16.8807 38.0287 22.5763 38.0287 29.5778C38.0287 36.8728 32.7035 42.5863 25.9048 42.5863ZM48.7028 42.8467C52.2729 39.3444 54.2381 34.6729 54.2381 29.6929C54.2381 24.7781 52.3171 20.1505 48.8276 16.6631C48.1351 15.9717 47.0078 15.9655 46.3089 16.6552C45.6115 17.3426 45.6068 18.4625 46.3009 19.1555C49.1232 21.975 50.6774 25.7174 50.6774 29.6929C50.6774 33.7208 49.0868 37.4994 46.1981 40.3323C45.4993 41.0182 45.493 42.1379 46.1839 42.8325C46.5316 43.1818 46.9918 43.3576 47.4503 43.3576C47.9025 43.3576 48.355 43.1872 48.7028 42.8467ZM58.504 51.07C64.1059 45.3006 67.1905 37.7082 67.1905 29.6929C67.1905 21.7222 64.1359 14.1605 58.5877 8.40144C57.911 7.6959 56.7822 7.67083 56.0706 8.34567C55.359 9.02051 55.3338 10.1396 56.0136 10.8451C60.9245 15.9436 63.6298 22.6365 63.6298 29.6929C63.6298 36.7884 60.8976 43.509 55.9393 48.6168C55.2562 49.3199 55.2768 50.439 55.9851 51.1162C56.3314 51.4467 56.7773 51.6114 57.2216 51.6114C57.688 51.6114 58.1546 51.4301 58.504 51.07Z" fill="black"/>
</g>
<defs>
<clipPath id="clip0_600_246">
<rect width="68" height="71" fill="white"/>
</clipPath>
</defs>
</svg>
