<svg width="69" height="81" viewBox="0 0 69 81" fill="none" xmlns="http://www.w3.org/2000/svg">
<g clip-path="url(#clip0_600_241)">
<path d="M44.9593 14.8538C44.3102 11.1925 44.5179 11.0607 40.5195 10.3759C40.1042 10.2968 39.8704 9.98076 39.8704 9.61204C39.8704 9.21689 40.1042 8.92726 40.5715 8.87459C44.5181 8.24249 44.3104 8.11071 44.9593 4.39669C45.0632 3.97529 45.2969 3.71191 45.7123 3.71191C46.0758 3.71191 46.3873 3.97529 46.4392 4.34401C47.1142 8.08429 46.9065 8.21606 50.9311 8.87459C51.2946 8.92726 51.5542 9.24331 51.5542 9.61204C51.5542 9.98076 51.2946 10.2968 50.9311 10.3759C46.9326 11.008 47.0883 11.1398 46.4392 14.8538C46.3873 15.249 46.1016 15.5386 45.7123 15.5386C45.323 15.5386 45.0632 15.2752 44.9593 14.8538ZM54.9376 33.6756C53.5709 25.7316 52.4888 24.1428 44.4589 23.0162C43.861 22.9007 43.4624 22.4674 43.4624 21.8895C43.4624 21.3117 43.861 20.8785 44.4589 20.7629C52.4034 19.5496 53.6563 18.0474 54.9376 10.1034C55.0515 9.52576 55.4786 9.09246 56.0482 9.09246C56.6178 9.09246 57.0447 9.52576 57.1587 10.0746C58.5825 18.0185 59.5791 19.6362 67.6374 20.7629C68.2353 20.8495 68.6626 21.3117 68.6626 21.8895C68.6626 22.4674 68.2355 22.9005 67.6374 23.0162C59.6929 24.1428 58.3831 25.8183 57.1587 33.6467C57.0449 34.2533 56.6178 34.6577 56.0482 34.6577C55.5072 34.6577 55.0516 34.2821 54.9376 33.6756ZM46.8748 76.8908H8.325C3.37235 76.8908 0.862305 75.0006 0.862305 71.2726C0.862305 61.8886 11.6047 51.8415 27.5981 51.8415C43.5914 51.8415 54.3373 61.8886 54.3373 71.2726C54.3373 75.0008 51.8274 76.8908 46.8748 76.8908ZM27.6 46.3704C20.3564 46.3704 14.6827 40.1488 14.6827 32.2056C14.6827 24.5819 20.4776 18.3799 27.6 18.3799C34.7223 18.3799 40.5173 24.5817 40.5173 32.2056C40.5173 40.149 34.8436 46.3704 27.6 46.3704Z" fill="black"/>
</g>
<defs>
<clipPath id="clip0_600_241">
<rect width="69" height="81" fill="white"/>
</clipPath>
</defs>
</svg>
