<?xml version="1.0" encoding="UTF-8"?>
<svg id="Layer_2" data-name="Layer 2" xmlns="http://www.w3.org/2000/svg" xmlns:xlink="http://www.w3.org/1999/xlink" viewBox="0 0 104.52 95.25">
  <defs>
    <style>
      .cls-1 {
        clip-path: url(#clippath-1);
      }

      .cls-2 {
        stroke: #fff;
        stroke-miterlimit: 10;
        stroke-width: .44px;
      }

      .cls-2, .cls-3 {
        fill: none;
      }

      .cls-4 {
        fill: #878787;
      }

      .cls-5 {
        clip-path: url(#clippath);
      }

      .cls-6 {
        opacity: .55;
      }
    </style>
    <clipPath id="clippath">
      <rect class="cls-3" width="104.52" height="95.25"/>
    </clipPath>
    <clipPath id="clippath-1">
      <rect class="cls-3" x="9" y="7" width="86.52" height="87.25"/>
    </clipPath>
  </defs>
  <g id="Layer_1-2" data-name="Layer 1">
    <g class="cls-6">
      <g class="cls-5">
        <g class="cls-1">
          <path class="cls-4" d="M94.84,67.41c1.55,13.14-5.67,26.59-5.67,26.59l-5.6,.25c-1.08-.89-2.39-2.65-3.08-3.61-.29-.41-.76-.65-1.26-.65l4.04-.09c.82-.02,1.5-.59,1.66-1.4,1.14-5.84,4.01-13.39,5.53-17.18,.46-1.14-.39-2.38-1.62-2.37-1.68,.02-1.21,0-3.09,.04,.93-.49,2.95-1.58,2.95-1.58h6.14Z"/>
          <path class="cls-4" d="M88.83,68.96c1.23,0,2.08,1.23,1.62,2.37-1.52,3.79-4.39,11.34-5.53,17.18-.16,.8-.84,1.38-1.66,1.4l-4.04,.09h-.03l-15.62,.34c.04-.24,.08-.48,.13-.73,1.23-7.29,2-15.78,2.33-19.89,0-.06,0-.12,.01-.18,0,0,10.53-.37,19.62-.54h.07c1.88-.04,1.4-.02,3.09-.04"/>
          <path class="cls-4" d="M58.2,69.56l7.84,.16c-.33,4.1-1.11,12.59-2.33,19.88l-7.45-.15s1.37-7.87,1.94-19.89"/>
          <path class="cls-4" d="M52.93,69.45l5.27,.11c-.56,12.02-1.94,19.89-1.94,19.89l-12.31-.24c0-.1-.03-.2-.04-.3-.15-.79-.55-1.48-1.1-1.99,6.03-3.29,10.12-9.7,10.12-17.06,0-.14,0-.27,0-.41h0Z"/>
          <path class="cls-4" d="M41.51,69.87c0-4.42-3.59-8-8.01-8s-8.01,3.59-8.01,8,3.58,8.01,8.01,8.01,8.01-3.59,8.01-8.01m11.42-.41c0,.14,0,.28,0,.41,0,7.36-4.09,13.76-10.12,17.06-1.87,1.03-3.93,1.75-6.12,2.11-1.04,.17-2.1,.26-3.19,.26-10.73,0-19.43-8.69-19.43-19.43,0-.31,0-.61,.02-.92,.48-10.3,8.99-18.51,19.41-18.51,1.06,0,2.09,.08,3.1,.25,9.12,1.46,16.12,9.27,16.33,18.77"/>
          <path class="cls-4" d="M43.95,89.21c.2,1.88-1.07,3.62-2.95,3.98-1.99,.38-3.9-.92-4.28-2.91-.08-.42-.08-.84-.02-1.24h0c2.19-.37,4.24-1.1,6.12-2.12,.55,.51,.95,1.19,1.1,1.99,.02,.1,.04,.2,.04,.3"/>
          <path class="cls-4" d="M39.8,10.21c1.27,.77,2.12,2.16,2.12,3.76,0,1.9-1.22,3.52-2.92,4.13-1.42-1.77-3.83-2.94-6.57-2.94s-5.15,1.17-6.57,2.94c-1.7-.6-2.92-2.23-2.92-4.13,0-1.6,.86-2.99,2.12-3.76,1.13,1.5,4.01,2.57,7.36,2.57s6.23-1.06,7.36-2.57"/>
          <path class="cls-4" d="M40.33,21.75v15.84c0,2.83-1.49,5.31-3.73,6.7-1.1,.69-2.39,1.11-3.76,1.18-.14,0-.27,0-.41,0-4.35,0-7.89-3.53-7.89-7.89v-15.84c0-1.35,.49-2.6,1.32-3.65,1.42-1.77,3.83-2.94,6.57-2.94s5.15,1.17,6.57,2.94c.84,1.05,1.32,2.3,1.32,3.65"/>
          <path class="cls-4" d="M40.33,7v1.78c0,.51-.18,.99-.53,1.44-1.13,1.5-4.01,2.57-7.36,2.57s-6.23-1.07-7.36-2.57c-.34-.45-.53-.93-.53-1.44v-1.78h15.78Z"/>
          <path class="cls-4" d="M33.5,61.86c4.42,0,8.01,3.59,8.01,8.01s-3.59,8-8.01,8-8.01-3.59-8.01-8,3.58-8.01,8.01-8.01"/>
          <path class="cls-4" d="M36.6,45.66v5.03c-1.01-.17-2.04-.25-3.1-.25-10.42,0-18.93,8.21-19.41,18.51l-4.56-.73s-.17-1.98,.03-3.13c2.18-10.98,11.73-19.3,23.27-19.61,.22,0,.44,0,.66,0,1.05,0,2.08,.07,3.1,.2"/>
          <path class="cls-4" d="M52.93,69.45c0,.14,0,.28,0,.41,0,7.36-4.09,13.76-10.12,17.06-1.87,1.03-3.93,1.75-6.12,2.11-1.04,.17-2.1,.26-3.19,.26-10.73,0-19.43-8.69-19.43-19.43,0-.31,0-.61,.02-.92,.48-10.3,8.99-18.51,19.41-18.51,1.06,0,2.09,.08,3.1,.25,9.12,1.46,16.12,9.27,16.33,18.77m-11.42,.41c0,4.42-3.59,8.01-8.01,8.01s-8.01-3.59-8.01-8.01,3.58-8,8.01-8,8.01,3.59,8.01,8M25.87,18.1c-.83,1.05-1.32,2.3-1.32,3.65v15.84c0,4.35,3.53,7.89,7.89,7.89,.14,0,.27,0,.41,0,1.37-.07,2.66-.49,3.76-1.18,2.24-1.39,3.73-3.87,3.73-6.7v-15.84c0-1.35-.48-2.6-1.32-3.65-1.42-1.77-3.83-2.94-6.57-2.94s-5.15,1.16-6.57,2.94m-.79-7.88c-.34-.44-.53-.93-.53-1.44v-1.77h15.78v1.77c0,.51-.18,1-.53,1.44-1.13,1.5-4,2.57-7.36,2.57s-6.23-1.06-7.36-2.57m17.73,76.71c.55,.51,.95,1.19,1.1,1.99,.02,.1,.04,.2,.04,.3,.2,1.88-1.07,3.62-2.95,3.98-1.98,.38-3.9-.93-4.28-2.91-.08-.42-.08-.84-.02-1.24m29.35-19.33c-.33,4.1-1.11,12.59-2.33,19.88m21.97-20.61c-9.09,.18-19.62,.54-19.62,.54,0,.06,0,.12-.01,.18l-7.84-.16-5.27-.11m32.81-.46h0c.93-.49,2.95-1.58,2.95-1.58h6.14c1.55,13.15-5.67,26.59-5.67,26.59l-5.6,.25c-1.08-.89-2.4-2.65-3.08-3.61-.29-.41-.76-.65-1.26-.65h-.03l-15.62,.34c.04-.24,.08-.48,.13-.73l-7.45-.15-12.31-.24m-7.35-38.53v-6.39m49.08,24.7h.07m0,0c1.88-.04,1.41-.02,3.09-.04,1.23,0,2.08,1.23,1.62,2.37-1.52,3.79-4.39,11.34-5.53,17.18-.16,.8-.84,1.38-1.66,1.4l-4.04,.09M36.6,45.66c-1.02-.13-2.05-.2-3.1-.2-.22,0-.45,0-.66,0-11.55,.31-21.09,8.63-23.28,19.62-.2,1.15-.03,3.13-.03,3.13l4.56,.73M25.87,18.1c-1.7-.6-2.92-2.23-2.92-4.13,0-1.6,.86-2.99,2.12-3.76m13.93,7.88c1.7-.6,2.92-2.23,2.92-4.13,0-1.6-.85-2.99-2.12-3.76m16.47,79.24s1.37-7.87,1.94-19.89h0"/>
          <path class="cls-2" d="M52.93,69.45c0,.14,0,.28,0,.41,0,7.36-4.09,13.76-10.12,17.06-1.87,1.03-3.93,1.75-6.12,2.11-1.04,.17-2.1,.26-3.19,.26-10.73,0-19.43-8.69-19.43-19.43,0-.31,0-.61,.02-.92,.48-10.3,8.99-18.51,19.41-18.51,1.06,0,2.09,.08,3.1,.25,9.12,1.46,16.12,9.27,16.33,18.77Zm-11.42,.41c0,4.42-3.59,8.01-8.01,8.01s-8.01-3.59-8.01-8.01,3.58-8,8.01-8,8.01,3.59,8.01,8ZM25.87,18.1c-.83,1.05-1.32,2.3-1.32,3.65v15.84c0,4.35,3.53,7.89,7.89,7.89,.14,0,.27,0,.41,0,1.37-.07,2.66-.49,3.76-1.18,2.24-1.39,3.73-3.87,3.73-6.7v-15.84c0-1.35-.48-2.6-1.32-3.65-1.42-1.77-3.83-2.94-6.57-2.94s-5.15,1.16-6.57,2.94Zm-.79-7.88c-.34-.44-.53-.93-.53-1.44v-1.77h15.78v1.77c0,.51-.18,1-.53,1.44-1.13,1.5-4,2.57-7.36,2.57s-6.23-1.06-7.36-2.57Zm17.73,76.71c.55,.51,.95,1.19,1.1,1.99,.02,.1,.04,.2,.04,.3,.2,1.88-1.07,3.62-2.95,3.98-1.98,.38-3.9-.93-4.28-2.91-.08-.42-.08-.84-.02-1.24m29.35-19.33c-.33,4.1-1.11,12.59-2.33,19.88m21.97-20.61c-9.09,.18-19.62,.54-19.62,.54,0,.06,0,.12-.01,.18l-7.84-.16-5.27-.11m32.81-.46h0c.93-.49,2.95-1.58,2.95-1.58h6.14c1.55,13.15-5.67,26.59-5.67,26.59l-5.6,.25c-1.08-.89-2.4-2.65-3.08-3.61-.29-.41-.76-.65-1.26-.65h-.03l-15.62,.34c.04-.24,.08-.48,.13-.73l-7.45-.15-12.31-.24m-7.35-38.53v-6.39m49.08,24.7h.07m0,0c1.88-.04,1.41-.02,3.09-.04,1.23,0,2.08,1.23,1.62,2.37-1.52,3.79-4.39,11.34-5.53,17.18-.16,.8-.84,1.38-1.66,1.4l-4.04,.09M36.6,45.66c-1.02-.13-2.05-.2-3.1-.2-.22,0-.45,0-.66,0-11.55,.31-21.09,8.63-23.28,19.62-.2,1.15-.03,3.13-.03,3.13l4.56,.73M25.87,18.1c-1.7-.6-2.92-2.23-2.92-4.13,0-1.6,.86-2.99,2.12-3.76m13.93,7.88c1.7-.6,2.92-2.23,2.92-4.13,0-1.6-.85-2.99-2.12-3.76m16.47,79.24s1.37-7.87,1.94-19.89h0"/>
        </g>
      </g>
    </g>
  </g>
</svg>