<?xml version="1.0" encoding="UTF-8"?>
<svg id="Layer_2" data-name="Layer 2" xmlns="http://www.w3.org/2000/svg" xmlns:xlink="http://www.w3.org/1999/xlink" viewBox="0 0 119.41 95.3">
  <defs>
    <style>
      .cls-1 {
        fill: #918c8b;
      }

      .cls-2 {
        stroke-linecap: round;
        stroke-linejoin: round;
      }

      .cls-2, .cls-3 {
        stroke: #fff;
        stroke-width: .44px;
      }

      .cls-2, .cls-3, .cls-4 {
        fill: none;
      }

      .cls-5 {
        clip-path: url(#clippath-1);
      }

      .cls-3 {
        stroke-miterlimit: 10;
      }

      .cls-6 {
        clip-path: url(#clippath);
      }

      .cls-7 {
        opacity: .55;
      }
    </style>
    <clipPath id="clippath">
      <rect class="cls-4" width="119.41" height="95.3"/>
    </clipPath>
    <clipPath id="clippath-1">
      <rect class="cls-4" x="9" y="7" width="101.41" height="87.3"/>
    </clipPath>
  </defs>
  <g id="Layer_1-2" data-name="Layer 1">
    <g class="cls-7">
      <g class="cls-6">
        <g class="cls-5">
          <path class="cls-1" d="M110.39,56.93v16.21l-.14,.66-7.46,9.31c-.08,.09-.19,.15-.31,.15h-2.99V46.81h2.99c.12,0,.23,.05,.31,.15l7.46,9.31,.14,.66Z"/>
          <path class="cls-1" d="M104.66,42.55v.43h-1.99v-.43c0-11.68-6.19-21.94-15.52-27.78l1.02-1.71c10.34,6.47,16.49,17.48,16.49,29.49"/>
          <path class="cls-1" d="M102.66,42.55v.43s-.09,.22-.38,.42c-.27,.19-.7,.38-1.37,.38-2.01,0-2.68-1.29-2.81-1.65-.02-.06-.03-.11-.03-.17v-.03c-.2-9.35-5.01-17.59-12.28-22.62-1.09-.76-1.43-2.21-.76-3.36,.19-.32,.42-.55,.64-.73,.71-.53,1.48-.46,1.48-.46,9.33,5.84,15.52,16.1,15.52,27.78"/>
          <path class="cls-1" d="M99.49,75.01v8.24s-11.29,8.07-33.86,10.45c4.82-1.59,8.3-6.13,8.3-11.48,0-3.75-1.71-7.1-4.38-9.32l2.13-1.54c1.43-1.03,3.12-1.65,4.88-1.76,3.88-.25,7.26-.61,10.14-1.02,2.79-.39,5.12-.83,6.98-1.25,.67-.14,1.28-.29,1.83-.43,2.03-.5,3.99,1.01,3.99,3.1v5.01Z"/>
          <path class="cls-1" d="M99.49,46.81v23.19c0-2.09-1.97-3.61-3.99-3.1-.55,.14-1.16,.28-1.83,.42v-20.17l.88-.32h2.14s2.8-.03,2.8-.03Z"/>
          <path class="cls-1" d="M97.39,43.03c.09-.49,.32-.83,.52-1.05,.05-.06,.15-.04,.15-.04v.02c0,.06,0,.11,.03,.17,.14,.35,.81,1.65,2.81,1.65,.68,0,1.11-.18,1.37-.38,0,.15,0,.35-.04,.54l-.53,2.87h-5.03s.7-3.78,.7-3.78Z"/>
          <path class="cls-1" d="M93.67,47.15v20.17c-1.87,.41-4.2,.85-6.99,1.25v-17.35c0-2.9,2.1-4.8,4.7-4.8,1.45,0,2.28,.73,2.28,.73"/>
          <path class="cls-1" d="M78.31,11.09c3.07,.86,6.1,2.05,8.84,3.69,0,0-.77-.07-1.48,.46-.73-.46-1.6-.96-2.61-1.42-1.03-.47-1.99-.8-2.82-1.04-.34-.79-1-1.42-1.92-1.68"/>
          <path class="cls-1" d="M80.23,12.76c.31,.72,.34,1.57,.05,2.39-.59,1.68-2.37,2.6-4.09,2.14-5.72-1.54-11.51-1.75-14.35-1.75s-8.64,.22-14.36,1.75c-1.72,.46-3.5-.46-4.09-2.14-.26-.74-.26-1.51-.02-2.18,.3-.88,.99-1.61,2-1.88,5.99-1.68,12.11-2.09,16.47-2.09s10.48,.42,16.47,2.09c.92,.26,1.59,.89,1.92,1.68"/>
          <path class="cls-1" d="M78.89,9.18l-.58,1.9c-5.99-1.68-12.11-2.09-16.47-2.09s-10.48,.41-16.47,2.09l-.58-1.9c6.51-1.83,13-2.18,17.05-2.18s10.55,.36,17.05,2.18"/>
          <path class="cls-1" d="M69.54,72.9c2.68,2.22,4.38,5.57,4.38,9.32,0,5.35-3.48,9.89-8.29,11.48-1.19,.39-2.46,.61-3.79,.61s-2.6-.21-3.79-.61c-4.82-1.59-8.3-6.13-8.3-11.48,0-3.75,1.71-7.1,4.39-9.32,2.09-1.73,4.77-2.77,7.7-2.77s5.61,1.04,7.7,2.77"/>
          <path class="cls-1" d="M52,71.36l2.14,1.54c-2.68,2.22-4.39,5.57-4.39,9.32,0,5.35,3.48,9.89,8.3,11.48-22.58-2.38-33.86-10.45-33.86-10.45v-13.24c0-2.09,1.97-3.61,4-3.1,.55,.14,1.16,.28,1.82,.43,1.87,.41,4.2,.85,6.99,1.25,2.88,.41,6.26,.78,10.14,1.02,1.75,.11,3.44,.74,4.87,1.76"/>
          <path class="cls-1" d="M40.64,13.87c-1.02,.45-1.87,.96-2.54,1.43-.73-.61-1.57-.52-1.57-.52,2.74-1.64,5.77-2.83,8.84-3.69-1,.28-1.7,1-2,1.88h0c-.78,.18-1.71,.45-2.73,.9"/>
          <path class="cls-1" d="M38.1,15.3c.2,.16,.39,.38,.56,.66,.67,1.15,.33,2.6-.76,3.36-7.27,5.02-12.08,13.26-12.28,22.62v.03c0,.06,0,.11-.03,.17-.14,.35-.81,1.65-2.81,1.65-.67,0-1.1-.18-1.37-.38-.29-.2-.39-.42-.39-.42h0v-.42c0-11.68,6.18-21.94,15.51-27.78,0,0,.83-.08,1.57,.52"/>
          <path class="cls-1" d="M36.99,51.23v17.35c-2.79-.39-5.12-.83-6.99-1.25v-20.17s.83-.73,2.28-.73c2.61,0,4.7,1.9,4.7,4.8"/>
          <path class="cls-1" d="M29.12,46.84l.88,.32v20.17c-.66-.14-1.27-.29-1.82-.43-2.03-.5-4,1.01-4,3.1v-23.19h2.8s2.14,.02,2.14,.02Z"/>
          <path class="cls-1" d="M25.61,41.96v-.02s.1-.02,.15,.04c.2,.22,.43,.56,.52,1.05l.7,3.8h-2.8s-2.23-.01-2.23-.01l-.53-2.87c-.04-.19-.04-.38-.03-.54,.27,.2,.7,.38,1.37,.38,2.01,0,2.68-1.29,2.81-1.65,.02-.05,.04-.11,.04-.17"/>
          <path class="cls-1" d="M24.18,70v13.24h-2.99c-.12,0-.24-.05-.32-.15l-7.46-9.31-.14-.66v-16.21l.14-.66,7.46-9.31c.08-.09,.19-.15,.32-.15h2.99v23.19Z"/>
          <path class="cls-1" d="M21.02,42.55v.43h-2v-.43c0-12.01,6.15-23.02,16.45-29.47l1.06,1.69c-9.33,5.84-15.51,16.1-15.51,27.78"/>
          <path class="cls-2" d="M80.23,12.76c.84,.24,1.79,.57,2.82,1.04,1.01,.46,1.88,.96,2.61,1.42m1.02,53.34v-17.35c0-2.9,2.1-4.8,4.7-4.8,1.45,0,2.28,.73,2.28,.73m-63.67,0l-.88-.32h-2.14s-2.8-.02-2.8-.02m12.8,21.76v-17.35c0-2.9-2.1-4.8-4.7-4.8-1.45,0-2.28,.73-2.28,.73m0,20.17v-20.17m-8.05-.34l-.53-2.87c-.04-.19-.04-.38-.03-.54m4.22-1.46s.1-.03,.15,.04c.2,.22,.43,.56,.52,1.05l.7,3.8m-7.96-3.85h1.99s.09,.22,.38,.42c.27,.2,.7,.38,1.37,.38,2.01,0,2.67-1.3,2.81-1.65,.02-.05,.04-.11,.04-.17v-.02c.2-9.35,5.01-17.59,12.28-22.62,1.09-.76,1.43-2.21,.76-3.36-.17-.28-.36-.49-.56-.66-.73-.61-1.57-.52-1.57-.52l-1.06-1.69m-13.52,33.73h-.76c-.12,0-.24,.05-.32,.15l-7.46,9.31-.14,.66v16.21l.14,.66,7.46,9.31c.08,.09,.19,.15,.32,.15h2.99V46.81h-2.23ZM45.37,11.09c-1,.28-1.7,1-2,1.88-.24,.67-.24,1.44,.02,2.18,.59,1.68,2.37,2.6,4.09,2.14,5.72-1.54,11.51-1.75,14.36-1.75m-17.05-6.36l.58,1.9m48.3,36.06l.88-.32h2.14s2.8-.02,2.8-.02m-5.82,20.51v-20.17m8.05-.34l.53-2.87c.03-.19,.04-.38,.03-.54m-4.22-1.46s-.1-.03-.15,.04c-.2,.22-.43,.56-.52,1.05l-.7,3.8m7.96-3.85h-1.99s-.09,.22-.38,.42c-.27,.19-.7,.38-1.37,.38-2.01,0-2.67-1.3-2.81-1.65-.03-.05-.03-.11-.03-.17v-.02c-.2-9.35-5.01-17.59-12.28-22.62-1.09-.76-1.43-2.21-.76-3.36,.19-.32,.42-.55,.64-.73,.71-.53,1.48-.46,1.48-.46l1.02-1.71m11.32,70.18v-13.24m0,0v-23.19h2.99c.12,0,.23,.05,.31,.15l7.46,9.31,.14,.66v16.21l-.14,.66-7.46,9.31c-.08,.09-.19,.15-.31,.15h-2.99M88.17,13.07c10.34,6.47,16.49,17.48,16.49,29.49v.43M44.79,9.18c6.51-1.83,13-2.18,17.05-2.18s10.55,.36,17.05,2.18M19.02,42.98v-.43c0-12.01,6.15-23.02,16.45-29.47m-14.46,29.89v-.43c0-11.68,6.18-21.94,15.51-27.78,2.74-1.64,5.77-2.83,8.84-3.69,5.99-1.68,12.11-2.09,16.47-2.09s10.48,.42,16.47,2.09c3.07,.86,6.1,2.05,8.84,3.69,9.33,5.84,15.52,16.1,15.52,27.78v.43m-24.36-31.89c.92,.26,1.59,.89,1.92,1.68,.31,.72,.34,1.57,.05,2.39-.59,1.68-2.37,2.6-4.09,2.14-5.72-1.54-11.51-1.75-14.35-1.75m17.05-6.36l-.58,1.9m-8.77,61.81c2.68,2.22,4.38,5.57,4.38,9.32,0,5.35-3.48,9.89-8.29,11.48-1.19,.39-2.46,.61-3.79,.61s-2.6-.21-3.79-.61c-4.82-1.59-8.3-6.13-8.3-11.48,0-3.75,1.71-7.1,4.39-9.32,2.09-1.73,4.77-2.77,7.7-2.77s5.61,1.04,7.7,2.77Zm-45.35,10.35s11.29,8.07,33.86,10.45m-3.9-20.8l-2.14-1.54c-1.43-1.03-3.11-1.65-4.87-1.76-3.89-.25-7.26-.61-10.14-1.02-2.79-.4-5.12-.84-6.99-1.25-.66-.14-1.27-.29-1.82-.43-2.03-.5-4,1.01-4,3.11m75.31,13.24s-11.29,8.07-33.86,10.45m3.91-20.8l2.14-1.54c1.43-1.03,3.12-1.65,4.87-1.76,3.88-.25,7.26-.61,10.14-1.02,2.79-.4,5.12-.84,6.99-1.25,.67-.14,1.27-.29,1.82-.43,2.03-.5,3.99,1.01,3.99,3.11"/>
          <path class="cls-3" d="M43.37,12.97c-.78,.18-1.71,.45-2.73,.9-1.02,.45-1.87,.96-2.54,1.43-.02,.01-.04,.03-.06,.04"/>
        </g>
      </g>
    </g>
  </g>
</svg>