<svg width="967" height="387" viewBox="0 0 967 387" fill="none" xmlns="http://www.w3.org/2000/svg">
<g opacity="0.55">
<mask id="mask0_600_364" style="mask-type:luminance" maskUnits="userSpaceOnUse" x="56" y="0" width="328" height="299">
<path d="M384 0H56V299H384V0Z" fill="white"/>
</mask>
<g mask="url(#mask0_600_364)">
<mask id="mask1_600_364" style="mask-type:luminance" maskUnits="userSpaceOnUse" x="84" y="21" width="272" height="275">
<path d="M355.756 21.9746H84.2432V295.862H355.756V21.9746Z" fill="white"/>
</mask>
<g mask="url(#mask1_600_364)">
<path d="M353.622 211.607C358.486 252.855 335.829 295.076 335.829 295.076L318.255 295.861C314.866 293.067 310.755 287.542 308.59 284.529C307.68 283.242 306.205 282.488 304.636 282.488L317.314 282.206C319.887 282.143 322.021 280.354 322.523 277.811C326.101 259.479 335.107 235.779 339.877 223.881C341.321 220.303 338.653 216.41 334.793 216.442C329.521 216.504 330.996 216.442 325.097 216.567C328.015 215.029 334.354 211.607 334.354 211.607H353.622Z" fill="#878787"/>
<path d="M334.762 216.475C338.622 216.475 341.289 220.336 339.846 223.914C335.076 235.812 326.069 259.512 322.492 277.844C321.99 280.355 319.856 282.176 317.282 282.239L304.604 282.521H304.51L255.492 283.589C255.618 282.835 255.743 282.082 255.9 281.297C259.76 258.413 262.176 231.762 263.212 218.86C263.212 218.672 263.212 218.484 263.243 218.295C263.243 218.295 296.288 217.134 324.814 216.6H325.034C330.933 216.475 329.427 216.537 334.731 216.475" fill="#878787"/>
<path d="M238.642 218.357L263.245 218.86C262.209 231.73 259.762 258.381 255.933 281.265L232.554 280.794C232.554 280.794 236.853 256.089 238.642 218.357Z" fill="#878787"/>
<path d="M222.104 218.01L238.642 218.355C236.885 256.087 232.554 280.792 232.554 280.792L193.923 280.039C193.923 279.725 193.829 279.411 193.798 279.097C193.327 276.617 192.072 274.451 190.346 272.85C209.269 262.522 222.104 242.401 222.104 219.297C222.104 218.857 222.104 218.449 222.104 218.01Z" fill="#878787"/>
<path d="M186.265 219.329C186.265 205.454 174.999 194.216 161.129 194.216C147.258 194.216 135.992 205.485 135.992 219.329C135.992 233.172 147.227 244.473 161.129 244.473C175.031 244.473 186.265 233.204 186.265 219.329ZM222.103 218.042C222.103 218.481 222.103 218.921 222.103 219.329C222.103 242.433 209.268 262.523 190.345 272.882C184.477 276.115 178.012 278.375 171.139 279.505C167.876 280.039 164.549 280.322 161.129 280.322C127.456 280.322 100.154 253.043 100.154 219.329C100.154 218.356 100.154 217.414 100.217 216.441C101.723 184.108 128.429 158.336 161.129 158.336C164.455 158.336 167.687 158.587 170.857 159.121C199.477 163.704 221.444 188.22 222.103 218.042Z" fill="#878787"/>
<path d="M193.922 280.04C194.55 285.942 190.564 291.404 184.664 292.534C178.419 293.727 172.426 289.646 171.233 283.399C170.982 282.081 170.982 280.762 171.17 279.506C178.043 278.345 184.476 276.053 190.376 272.852C192.102 274.453 193.357 276.587 193.828 279.098C193.891 279.412 193.953 279.726 193.953 280.04" fill="#878787"/>
<path d="M180.9 32.0547C184.885 34.4718 187.552 38.8352 187.552 43.8577C187.552 49.822 183.724 54.9074 178.389 56.8222C173.933 51.266 166.37 47.5933 157.771 47.5933C149.173 47.5933 141.61 51.266 137.154 56.8222C131.819 54.9388 127.99 49.822 127.99 43.8577C127.99 38.8352 130.689 34.4718 134.643 32.0547C138.189 36.7633 147.227 40.1222 157.74 40.1222C168.253 40.1222 177.291 36.7947 180.837 32.0547" fill="#878787"/>
<path d="M182.561 68.2787V118.002C182.561 126.886 177.885 134.671 170.856 139.034C167.404 141.2 163.356 142.519 159.056 142.738C158.617 142.738 158.209 142.738 157.77 142.738C144.119 142.738 133.01 131.657 133.01 117.971V68.2473C133.01 64.0095 134.547 60.0856 137.152 56.7895C141.608 51.2333 149.171 47.5605 157.77 47.5605C166.368 47.5605 173.931 51.2333 178.387 56.7895C181.024 60.0856 182.53 64.0095 182.53 68.2473" fill="#878787"/>
<path d="M182.56 21.9746V27.5622C182.56 29.1632 181.995 30.6699 180.897 32.0825C177.351 36.7912 168.313 40.15 157.8 40.15C147.287 40.15 138.249 36.7912 134.703 32.0825C133.636 30.6699 133.04 29.1632 133.04 27.5622V21.9746H182.56Z" fill="#878787"/>
<path d="M161.129 194.184C174.999 194.184 186.265 205.453 186.265 219.328C186.265 233.203 174.999 244.441 161.129 244.441C147.258 244.441 135.992 233.171 135.992 219.328C135.992 205.484 147.227 194.184 161.129 194.184Z" fill="#878787"/>
<path d="M170.857 143.333V159.122C167.687 158.589 164.455 158.338 161.128 158.338C128.429 158.338 101.723 184.11 100.217 216.442L85.9068 214.151C85.9068 214.151 85.3733 207.935 86.0009 204.325C92.8421 169.858 122.812 143.741 159.026 142.768C159.716 142.768 160.407 142.768 161.097 142.768C164.392 142.768 167.624 142.987 170.825 143.395" fill="#878787"/>
<path d="M222.103 218.01C222.103 218.449 222.103 218.889 222.103 219.297C222.103 242.401 209.268 262.491 190.345 272.85C184.476 276.083 178.012 278.343 171.139 279.473C167.875 280.007 164.549 280.29 161.128 280.29C127.456 280.29 100.154 253.011 100.154 219.297C100.154 218.324 100.154 217.382 100.217 216.409C101.723 184.076 128.429 158.304 161.128 158.304C164.455 158.304 167.687 158.555 170.857 159.089C199.477 163.672 221.444 188.188 222.103 218.01ZM186.265 219.297C186.265 233.172 174.999 244.441 161.128 244.441C147.258 244.441 135.992 233.172 135.992 219.297C135.992 205.422 147.226 194.184 161.128 194.184C175.03 194.184 186.265 205.453 186.265 219.297ZM137.184 56.8165C134.58 60.1125 133.042 64.0364 133.042 68.2742V117.998C133.042 131.653 144.12 142.765 157.802 142.765C158.241 142.765 158.649 142.765 159.089 142.765C163.388 142.545 167.436 141.227 170.888 139.061C177.918 134.698 182.593 126.913 182.593 118.029V68.3056C182.593 64.0678 181.087 60.1439 178.451 56.8479C173.995 51.2916 166.432 47.6189 157.833 47.6189C149.235 47.6189 141.672 51.2602 137.216 56.8479M134.737 32.1117C133.67 30.7305 133.073 29.1923 133.073 27.5914V22.0352H182.593V27.5914C182.593 29.1923 182.029 30.7305 180.93 32.1117C177.384 36.8204 168.378 40.1792 157.833 40.1792C147.289 40.1792 138.283 36.8517 134.737 32.1117ZM190.376 272.913C192.102 274.514 193.357 276.648 193.828 279.159C193.891 279.473 193.953 279.787 193.953 280.101C194.581 286.003 190.596 291.465 184.696 292.595C178.482 293.788 172.457 289.675 171.265 283.46C171.014 282.142 171.014 280.823 171.202 279.568M263.307 218.889C262.271 231.759 259.823 258.41 255.995 281.294ZM324.94 216.597C296.414 217.162 263.369 218.292 263.369 218.292C263.369 218.481 263.369 218.669 263.338 218.857L238.735 218.355L222.197 218.01M325.16 216.566C328.078 215.027 334.417 211.606 334.417 211.606H353.686C358.55 252.885 335.892 295.075 335.892 295.075L318.319 295.86C314.929 293.066 310.787 287.541 308.653 284.527C307.743 283.24 306.268 282.487 304.699 282.487H304.605L255.587 283.554C255.712 282.801 255.838 282.047 255.995 281.263L232.616 280.792L193.985 280.038M170.919 159.089V139.03ZM324.94 216.566H325.16ZM325.16 216.566C331.059 216.44 329.585 216.503 334.857 216.44C338.717 216.44 341.384 220.301 339.94 223.88C335.17 235.777 326.164 259.477 322.586 277.81C322.084 280.321 319.95 282.142 317.377 282.204L304.699 282.487M170.857 143.33C167.656 142.922 164.423 142.702 161.128 142.702C160.438 142.702 159.716 142.702 159.057 142.702C122.812 143.676 92.8735 169.793 86.0009 204.292C85.3733 207.902 85.9068 214.117 85.9068 214.117L100.217 216.409M137.184 56.8165C131.849 54.933 128.021 49.8163 128.021 43.852C128.021 38.8294 130.72 34.466 134.674 32.0489M178.388 56.7851C183.723 54.9016 187.552 49.7849 187.552 43.8206C187.552 38.798 184.884 34.4346 180.899 32.0175M232.584 280.76C232.584 280.76 236.883 256.056 238.672 218.324Z" fill="#878787"/>
<path d="M100.217 216.411C100.154 217.384 100.154 218.326 100.154 219.299C100.154 253.013 127.456 280.292 161.128 280.292C164.549 280.292 167.875 280.009 171.139 279.475C178.012 278.345 184.476 276.085 190.345 272.852C209.268 262.493 222.103 242.403 222.103 219.299C222.103 218.891 222.103 218.451 222.103 218.012C221.444 188.19 199.477 163.674 170.857 159.091C167.687 158.557 164.455 158.306 161.128 158.306C128.429 158.306 101.723 184.078 100.217 216.411ZM100.217 216.411L85.9068 214.119C85.9068 214.119 85.3733 207.904 86.0009 204.294C92.8735 169.795 122.812 143.678 159.057 142.705C159.716 142.705 160.438 142.705 161.128 142.705C164.423 142.705 167.656 142.924 170.857 143.332M137.184 56.8186C134.58 60.1146 133.042 64.0385 133.042 68.2763V118C133.042 131.655 144.12 142.767 157.802 142.767C158.241 142.767 158.649 142.767 159.089 142.767C163.388 142.548 167.436 141.229 170.888 139.063C177.918 134.7 182.593 126.915 182.593 118.031V68.3077C182.593 64.0699 181.087 60.146 178.451 56.85C173.995 51.2937 166.432 47.621 157.833 47.621C149.235 47.621 141.672 51.2623 137.216 56.85L137.184 56.8186ZM137.184 56.8186C131.849 54.9351 128.021 49.8184 128.021 43.854C128.021 38.8315 130.72 34.4681 134.674 32.051M190.345 272.883C192.071 274.484 193.326 276.619 193.797 279.13C193.859 279.444 193.922 279.758 193.922 280.072C194.55 285.973 190.564 291.435 184.665 292.566C178.451 293.758 172.426 289.646 171.233 283.431C170.982 282.112 170.982 280.794 171.17 279.538M263.275 218.859C262.24 231.73 259.792 258.381 255.963 281.265M324.909 216.568C296.383 217.133 263.338 218.263 263.338 218.263C263.338 218.451 263.338 218.64 263.307 218.828L238.704 218.326L222.166 217.98M325.128 216.536C328.047 214.998 334.386 211.577 334.386 211.577H353.654C358.518 252.856 335.861 295.045 335.861 295.045L318.287 295.83C314.898 293.036 310.756 287.512 308.622 284.498C307.712 283.211 306.237 282.458 304.668 282.458M325.128 216.536H324.909M325.128 216.536C331.028 216.411 329.553 216.474 334.825 216.411C338.685 216.411 341.353 220.272 339.909 223.85C335.139 235.748 326.133 259.448 322.555 277.78C322.053 280.292 319.919 282.112 317.346 282.175L304.668 282.458M304.668 282.458H304.573L255.555 283.525C255.681 282.772 255.807 282.018 255.963 281.233L232.584 280.762M232.584 280.762L193.953 280.009M232.584 280.762C232.584 280.762 236.883 256.058 238.672 218.326M170.888 159.059V139M178.388 56.7872C183.723 54.9037 187.552 49.787 187.552 43.8227C187.552 38.8001 184.884 34.4367 180.899 32.0196M186.265 219.299C186.265 233.174 174.999 244.443 161.128 244.443C147.258 244.443 135.992 233.174 135.992 219.299C135.992 205.424 147.226 194.186 161.128 194.186C175.03 194.186 186.265 205.455 186.265 219.299ZM134.705 32.0824C133.638 30.7012 133.042 29.163 133.042 27.5621V22.0059H182.562V27.5621C182.562 29.163 181.997 30.7012 180.899 32.0824C177.353 36.7911 168.346 40.1499 157.802 40.1499C147.258 40.1499 138.251 36.8224 134.705 32.0824Z" stroke="white" stroke-width="0.44" stroke-miterlimit="10"/>
</g>
</g>
</g>
<g clip-path="url(#clip0_600_364)">
<g opacity="0.55">
<mask id="mask2_600_364" style="mask-type:luminance" maskUnits="userSpaceOnUse" x="581" y="5" width="386" height="308">
<path d="M967 5H581V313H967V5Z" fill="white"/>
</mask>
<g mask="url(#mask2_600_364)">
<mask id="mask3_600_364" style="mask-type:luminance" maskUnits="userSpaceOnUse" x="610" y="27" width="328" height="283">
<path d="M937.908 27.6211H610.094V309.766H937.908V27.6211Z" fill="white"/>
</mask>
<g mask="url(#mask3_600_364)">
<path d="M937.844 188.992V241.381L937.392 243.514L913.277 273.603C913.018 273.894 912.663 274.088 912.275 274.088H902.609V156.285H912.275C912.663 156.285 913.018 156.447 913.277 156.77L937.392 186.859L937.844 188.992Z" fill="#918C8B"/>
<path d="M919.321 142.516V143.905H912.888V142.516C912.888 104.767 892.879 71.6079 862.719 52.7336L866.016 47.207C899.441 68.1174 919.321 103.701 919.321 142.516Z" fill="#918C8B"/>
<path d="M912.856 142.518V143.907C912.856 143.907 912.565 144.618 911.628 145.265C910.755 145.879 909.365 146.493 907.199 146.493C900.702 146.493 898.536 142.324 898.116 141.16C898.051 140.966 898.019 140.805 898.019 140.611V140.514C897.372 110.296 881.824 83.6648 858.323 67.4084C854.799 64.9521 853.7 60.2659 855.866 56.5492C856.48 55.515 857.224 54.7717 857.935 54.1899C860.23 52.477 862.719 52.7032 862.719 52.7032C892.879 71.5775 912.889 104.737 912.889 142.485" fill="#918C8B"/>
<path d="M902.608 247.424V274.055C902.608 274.055 866.112 300.136 793.153 307.828C808.734 302.69 819.984 288.017 819.984 270.726C819.984 258.606 814.456 247.78 805.825 240.605L812.71 235.628C817.333 232.299 822.796 230.295 828.485 229.939C841.028 229.132 851.954 227.968 861.263 226.643C870.282 225.383 877.814 223.96 883.827 222.603C885.992 222.151 887.964 221.666 889.742 221.213C896.304 219.597 902.64 224.478 902.64 231.232V247.424H902.608Z" fill="#918C8B"/>
<path d="M902.608 156.286V231.234C902.608 224.479 896.24 219.567 889.711 221.215C887.933 221.668 885.961 222.12 883.795 222.572V157.385L886.64 156.351H893.557L902.608 156.254V156.286Z" fill="#918C8B"/>
<path d="M895.819 144.068C896.11 142.485 896.853 141.386 897.5 140.675C897.661 140.481 897.984 140.545 897.984 140.545V140.61C897.984 140.804 897.984 140.966 898.081 141.16C898.534 142.291 900.7 146.492 907.165 146.492C909.363 146.492 910.753 145.91 911.594 145.264C911.594 145.749 911.594 146.395 911.464 147.009L909.751 156.285H893.491L895.754 144.068H895.819Z" fill="#918C8B"/>
<path d="M883.794 157.383V222.57C877.749 223.895 870.217 225.317 861.198 226.61V170.537C861.198 161.164 867.987 155.023 876.391 155.023C881.078 155.023 883.762 157.383 883.762 157.383" fill="#918C8B"/>
<path d="M834.142 40.8398C844.066 43.6193 853.86 47.4652 862.717 52.7656C862.717 52.7656 860.228 52.5393 857.933 54.2522C855.573 52.7656 852.761 51.1496 849.496 49.6629C846.167 48.1439 843.063 47.0774 840.38 46.3018C839.281 43.7486 837.148 41.7125 834.174 40.8722" fill="#918C8B"/>
<path d="M840.349 46.2379C841.351 48.5648 841.448 51.312 840.511 53.9621C838.604 59.3917 832.85 62.3651 827.29 60.8784C808.799 55.9013 790.083 55.2226 780.902 55.2226C771.722 55.2226 752.973 55.9336 734.483 60.8784C728.923 62.3651 723.169 59.3917 721.262 53.9621C720.421 51.5705 720.421 49.082 721.197 46.9166C722.167 44.0725 724.397 41.7132 727.662 40.8406C747.025 35.411 766.808 34.0859 780.902 34.0859C794.996 34.0859 814.78 35.4433 834.143 40.8406C837.117 41.6809 839.282 43.717 840.349 46.2702" fill="#918C8B"/>
<path d="M836.017 34.6666L834.143 40.8072C814.779 35.3777 794.996 34.0526 780.902 34.0526C766.808 34.0526 747.025 35.3777 727.662 40.8072L725.787 34.6666C746.831 28.7523 767.81 27.6211 780.902 27.6211C793.994 27.6211 815.006 28.7846 836.017 34.6666Z" fill="#918C8B"/>
<path d="M805.793 240.605C814.456 247.78 819.951 258.606 819.951 270.726C819.951 288.017 808.702 302.689 793.153 307.828C789.307 309.089 785.201 309.8 780.902 309.8C776.603 309.8 772.497 309.121 768.651 307.828C753.07 302.689 741.82 288.017 741.82 270.726C741.82 258.606 747.348 247.78 756.011 240.605C762.767 235.014 771.431 231.652 780.902 231.652C790.373 231.652 799.037 235.014 805.793 240.605Z" fill="#918C8B"/>
<path d="M749.095 235.624L756.012 240.602C747.349 247.776 741.821 258.603 741.821 270.723C741.821 288.014 753.071 302.686 768.652 307.825C695.661 300.133 659.197 274.052 659.197 274.052V231.261C659.197 224.507 665.565 219.594 672.128 221.242C673.905 221.695 675.877 222.147 678.011 222.632C684.056 223.957 691.588 225.379 700.606 226.672C709.916 227.997 720.842 229.193 733.385 229.969C739.041 230.324 744.505 232.36 749.127 235.657" fill="#918C8B"/>
<path d="M712.373 49.8245C709.076 51.2789 706.328 52.9271 704.162 54.4461C701.802 52.4747 699.087 52.7656 699.087 52.7656C707.944 47.4652 717.739 43.6193 727.663 40.8398C724.43 41.7448 722.167 44.0717 721.198 46.9158C718.676 47.4976 715.67 48.3702 712.373 49.8245Z" fill="#918C8B"/>
<path d="M704.159 54.4488C704.806 54.9659 705.42 55.6769 705.97 56.5818C708.135 60.2985 707.036 64.9848 703.513 67.441C680.012 83.6652 664.464 110.296 663.817 140.547V140.644C663.817 140.837 663.817 140.999 663.72 141.193C663.268 142.324 661.102 146.526 654.637 146.526C652.471 146.526 651.081 145.944 650.208 145.297C649.271 144.651 648.947 143.94 648.947 143.94V142.583C648.947 104.834 668.924 71.6748 699.084 52.8005C699.084 52.8005 701.767 52.542 704.159 54.4811" fill="#918C8B"/>
<path d="M700.573 170.568V226.641C691.554 225.381 684.022 223.959 677.978 222.601V157.414C677.978 157.414 680.661 155.055 685.348 155.055C693.785 155.055 700.541 161.195 700.541 170.568" fill="#918C8B"/>
<path d="M675.132 156.382L677.977 157.416V222.604C675.843 222.151 673.871 221.666 672.093 221.214C665.531 219.598 659.163 224.478 659.163 231.233V156.285H668.214L675.132 156.35V156.382Z" fill="#918C8B"/>
<path d="M663.788 140.61V140.545C663.788 140.545 664.112 140.481 664.273 140.675C664.92 141.386 665.663 142.485 665.954 144.068L668.217 156.349H659.166L651.957 156.317L650.244 147.042C650.115 146.428 650.115 145.813 650.147 145.296C651.02 145.943 652.41 146.525 654.575 146.525C661.073 146.525 663.239 142.355 663.659 141.192C663.724 141.03 663.788 140.836 663.788 140.642" fill="#918C8B"/>
<path d="M659.163 231.229V274.02H649.497C649.109 274.02 648.722 273.858 648.463 273.535L624.348 243.446L623.896 241.313V188.924L624.348 186.791L648.463 156.702C648.722 156.411 649.077 156.217 649.497 156.217H659.163V231.165V231.229Z" fill="#918C8B"/>
<path d="M648.947 142.514V143.903H642.481V142.514C642.481 103.698 662.362 68.1153 695.657 47.2695L699.084 52.7314C668.924 71.6057 648.947 104.765 648.947 142.514Z" fill="#918C8B"/>
<path d="M840.349 46.2368C843.064 47.0125 846.135 48.079 849.465 49.598C852.73 51.0847 855.542 52.7006 857.902 54.1873M861.199 226.577V170.503C861.199 161.131 867.987 154.99 876.392 154.99C881.079 154.99 883.762 157.35 883.762 157.35M677.945 157.35L675.1 156.315H668.183M677.945 157.35C677.945 157.35 680.628 154.99 685.315 154.99C693.72 154.99 700.508 161.131 700.508 170.503V226.577M677.945 157.35V222.537M668.183 156.315L659.132 156.251M668.183 156.315L665.92 144.034C665.629 142.45 664.886 141.352 664.239 140.641C664.077 140.414 663.754 140.511 663.754 140.511M651.923 156.251L650.21 146.975C650.08 146.361 650.08 145.747 650.113 145.23M650.113 145.23C649.175 144.584 648.884 143.873 648.884 143.873H642.452M650.113 145.23C650.986 145.876 652.376 146.458 654.541 146.458C661.039 146.458 663.172 142.257 663.625 141.125C663.689 140.964 663.754 140.77 663.754 140.576V140.511M663.754 140.511C664.401 110.293 679.949 83.6622 703.45 67.4058C706.973 64.9495 708.073 60.2633 705.907 56.5466C705.357 55.6417 704.743 54.963 704.096 54.4135C701.737 52.4421 699.021 52.733 699.021 52.733L695.595 47.271M727.662 40.8396C724.429 41.7445 722.167 44.0715 721.197 46.9155C720.421 49.0809 720.421 51.5695 721.261 53.9611C723.169 59.3907 728.923 62.364 734.483 60.8773C752.973 55.9002 771.689 55.2215 780.902 55.2215M727.662 40.8072L725.787 34.6666C746.831 28.7523 767.81 27.6211 780.902 27.6211C793.994 27.6211 815.006 28.7846 836.017 34.6666M893.557 156.315H886.639L883.794 157.35V222.537M893.557 156.315L902.608 156.251M893.557 156.315L895.82 144.034C896.111 142.45 896.854 141.352 897.501 140.641C897.662 140.414 897.985 140.511 897.985 140.511M902.608 156.251V231.198V273.989M902.608 156.251H912.273C912.661 156.251 913.017 156.412 913.275 156.735L937.39 186.824L937.843 188.957V241.347L937.39 243.48L913.275 273.569C913.017 273.859 912.661 274.053 912.273 274.053H902.608M909.817 156.251L911.53 146.975C911.627 146.361 911.659 145.747 911.627 145.23M911.627 145.23C912.564 144.584 912.855 143.873 912.855 143.873M911.627 145.23C910.754 145.844 909.364 146.458 907.198 146.458C900.701 146.458 898.567 142.257 898.115 141.125C898.018 140.964 898.018 140.77 898.018 140.576V140.511C897.371 110.293 881.823 83.6622 858.322 67.4058C854.798 64.9495 853.699 60.2633 855.865 56.5466C856.479 55.5124 857.223 54.769 857.934 54.1873C860.229 52.4744 862.718 52.7006 862.718 52.7006L866.015 47.1741M919.288 143.873H912.855M912.855 143.873V142.483C912.855 104.734 892.846 71.5749 862.686 52.7006C853.829 47.4003 844.034 43.5544 834.11 40.7749C814.747 35.3777 794.964 34.0203 780.87 34.0203C766.776 34.0203 746.993 35.3453 727.63 40.7749C717.706 43.5544 707.911 47.4003 699.054 52.7006C668.894 71.5749 648.917 104.734 648.917 142.483V143.873M866.015 47.2387C899.44 68.1491 919.32 103.732 919.32 142.547V143.937M642.484 143.905V142.515C642.484 103.7 662.364 68.1168 695.66 47.271M780.87 55.2215C790.05 55.2215 808.767 55.9002 827.257 60.8773C832.817 62.364 838.571 59.3907 840.478 53.9611C841.416 51.3109 841.319 48.5638 840.317 46.2368C839.25 43.6836 837.084 41.6475 834.11 40.8072L835.985 34.6666M768.618 307.794C772.465 309.087 776.57 309.766 780.87 309.766C785.169 309.766 789.274 309.055 793.121 307.794C808.67 302.656 819.919 287.983 819.919 270.692C819.919 258.573 814.424 247.746 805.76 240.571C799.004 234.98 790.341 231.619 780.87 231.619C771.398 231.619 762.735 234.98 755.979 240.571C747.316 247.746 741.788 258.573 741.788 270.692C741.788 287.983 753.037 302.656 768.618 307.794ZM768.618 307.794C695.66 300.103 659.164 274.021 659.164 274.021M756.011 240.571L749.094 235.594C744.471 232.265 739.04 230.261 733.351 229.906C720.777 229.098 709.883 227.934 700.573 226.609C691.554 225.316 684.022 223.894 677.977 222.569C675.844 222.117 673.872 221.632 672.094 221.18C665.532 219.564 659.164 224.444 659.164 231.231M902.608 274.021C902.608 274.021 866.112 300.103 793.154 307.794M805.793 240.571L812.711 235.594C817.333 232.265 822.796 230.261 828.453 229.906C840.995 229.098 851.921 227.934 861.231 226.609C870.25 225.316 877.782 223.894 883.827 222.569C885.993 222.117 887.932 221.632 889.71 221.18C896.272 219.564 902.608 224.444 902.608 231.231M651.891 156.283H649.434C649.046 156.283 648.658 156.445 648.399 156.768L624.285 186.857L623.832 188.99V241.379L624.285 243.512L648.399 273.601C648.658 273.892 649.014 274.086 649.434 274.086H659.099V156.283H651.891Z" stroke="white" stroke-width="0.44" stroke-linecap="round" stroke-linejoin="round"/>
<path d="M721.197 46.918C718.676 47.4997 715.67 48.3723 712.372 49.8267C709.075 51.281 706.328 52.9293 704.162 54.4483C704.097 54.4806 704.032 54.5453 703.968 54.5776" stroke="white" stroke-width="0.44" stroke-miterlimit="10"/>
</g>
</g>
</g>
</g>
<path d="M46.7071 17.2929C46.3166 16.9024 45.6834 16.9024 45.2929 17.2929L38.9289 23.6569C38.5384 24.0474 38.5384 24.6805 38.9289 25.0711C39.3195 25.4616 39.9526 25.4616 40.3431 25.0711L46 19.4142L51.6569 25.0711C52.0474 25.4616 52.6805 25.4616 53.0711 25.0711C53.4616 24.6805 53.4616 24.0474 53.0711 23.6569L46.7071 17.2929ZM45.2929 329.707C45.6834 330.098 46.3166 330.098 46.7071 329.707L53.0711 323.343C53.4616 322.953 53.4616 322.319 53.0711 321.929C52.6806 321.538 52.0474 321.538 51.6569 321.929L46 327.586L40.3432 321.929C39.9526 321.538 39.3195 321.538 38.9289 321.929C38.5384 322.319 38.5384 322.953 38.9289 323.343L45.2929 329.707ZM45 18L45 329L47 329L47 18L45 18Z" fill="#0071E3"/>
<path d="M348.707 345.707C349.098 345.317 349.098 344.683 348.707 344.293L342.343 337.929C341.953 337.538 341.319 337.538 340.929 337.929C340.538 338.319 340.538 338.953 340.929 339.343L346.586 345L340.929 350.657C340.538 351.047 340.538 351.681 340.929 352.071C341.319 352.462 341.953 352.462 342.343 352.071L348.707 345.707ZM73.2929 344.293C72.9024 344.683 72.9024 345.317 73.2929 345.707L79.6569 352.071C80.0474 352.462 80.6805 352.462 81.0711 352.071C81.4616 351.681 81.4616 351.047 81.0711 350.657L75.4142 345L81.0711 339.343C81.4616 338.953 81.4616 338.319 81.0711 337.929C80.6805 337.538 80.0474 337.538 79.6569 337.929L73.2929 344.293ZM348 344L74 344V346L348 346V344Z" fill="#0071E3"/>
<path d="M937.707 345.707C938.098 345.317 938.098 344.683 937.707 344.293L931.343 337.929C930.953 337.538 930.319 337.538 929.929 337.929C929.538 338.319 929.538 338.953 929.929 339.343L935.586 345L929.929 350.657C929.538 351.047 929.538 351.681 929.929 352.071C930.319 352.462 930.953 352.462 931.343 352.071L937.707 345.707ZM609.293 344.293C608.902 344.683 608.902 345.317 609.293 345.707L615.657 352.071C616.047 352.462 616.681 352.462 617.071 352.071C617.462 351.681 617.462 351.047 617.071 350.657L611.414 345L617.071 339.343C617.462 338.953 617.462 338.319 617.071 337.929C616.681 337.538 616.047 337.538 615.657 337.929L609.293 344.293ZM937 344L610 344L610 346L937 346L937 344Z" fill="#0071E3"/>
<path d="M29 215.845L27.65 215.845C25.8667 214.045 24.3 212.52 22.95 211.27C21.5833 210.02 20.3583 209.07 19.275 208.42C18.175 207.77 17.1417 207.445 16.175 207.445C15.4917 207.445 14.8917 207.57 14.375 207.82C13.8417 208.054 13.4333 208.42 13.15 208.92C12.85 209.42 12.7 210.054 12.7 210.82C12.7 211.57 12.9083 212.27 13.325 212.92C13.7417 213.554 14.2417 214.12 14.825 214.62L13.55 215.945C12.7167 215.212 12.0583 214.42 11.575 213.57C11.0917 212.72 10.85 211.712 10.85 210.545C10.85 209.445 11.0667 208.504 11.5 207.72C11.9333 206.92 12.5417 206.304 13.325 205.87C14.1083 205.42 15.025 205.195 16.075 205.195C17.1917 205.195 18.325 205.512 19.475 206.145C20.625 206.779 21.8333 207.645 23.1 208.745C24.35 209.845 25.7167 211.095 27.2 212.495C27.1667 212.029 27.1333 211.529 27.1 210.995C27.05 210.462 27.025 209.962 27.025 209.495L27.025 204.32L29 204.32L29 215.845ZM29.325 196.128C29.325 197.311 28.9667 198.328 28.25 199.178C27.5333 200.028 26.4833 200.686 25.1 201.153C23.7167 201.603 22.025 201.828 20.025 201.828C18.0417 201.828 16.3667 201.603 15 201.153C13.6333 200.686 12.6 200.028 11.9 199.178C11.2 198.328 10.85 197.311 10.85 196.128C10.85 194.945 11.2 193.928 11.9 193.078C12.6 192.228 13.6333 191.578 15 191.128C16.3667 190.661 18.0417 190.428 20.025 190.428C22.025 190.428 23.7167 190.661 25.1 191.128C26.4833 191.578 27.5333 192.228 28.25 193.078C28.9667 193.928 29.325 194.945 29.325 196.128ZM27.475 196.128C27.475 195.428 27.2167 194.82 26.7 194.303C26.1833 193.77 25.375 193.361 24.275 193.078C23.175 192.778 21.7583 192.628 20.025 192.628C18.2917 192.628 16.8833 192.778 15.8 193.078C14.7167 193.361 13.925 193.77 13.425 194.303C12.925 194.82 12.675 195.428 12.675 196.128C12.675 196.811 12.925 197.42 13.425 197.953C13.925 198.486 14.7167 198.903 15.8 199.203C16.8833 199.486 18.2917 199.628 20.025 199.628C21.7583 199.628 23.175 199.486 24.275 199.203C25.375 198.903 26.1833 198.486 26.7 197.953C27.2167 197.42 27.475 196.811 27.475 196.128ZM29.325 182.261C29.325 183.444 28.9667 184.461 28.25 185.311C27.5333 186.161 26.4833 186.819 25.1 187.286C23.7167 187.736 22.025 187.961 20.025 187.961C18.0417 187.961 16.3667 187.736 15 187.286C13.6333 186.819 12.6 186.161 11.9 185.311C11.2 184.461 10.85 183.444 10.85 182.261C10.85 181.078 11.2 180.061 11.9 179.211C12.6 178.361 13.6333 177.711 15 177.261C16.3667 176.794 18.0417 176.561 20.025 176.561C22.025 176.561 23.7167 176.794 25.1 177.261C26.4833 177.711 27.5333 178.361 28.25 179.211C28.9667 180.061 29.325 181.078 29.325 182.261ZM27.475 182.261C27.475 181.561 27.2167 180.953 26.7 180.436C26.1833 179.903 25.375 179.494 24.275 179.211C23.175 178.911 21.7583 178.761 20.025 178.761C18.2917 178.761 16.8833 178.911 15.8 179.211C14.7167 179.494 13.925 179.903 13.425 180.436C12.925 180.953 12.675 181.561 12.675 182.261C12.675 182.944 12.925 183.553 13.425 184.086C13.925 184.619 14.7167 185.036 15.8 185.336C16.8833 185.619 18.2917 185.761 20.025 185.761C21.7583 185.761 23.175 185.619 24.275 185.336C25.375 185.036 26.1833 184.619 26.7 184.086C27.2167 183.553 27.475 182.944 27.475 182.261ZM29 173.044L15.425 173.044L15.425 171.169L17.4 170.944L17.4 170.894C16.75 170.294 16.2 169.644 15.75 168.944C15.3 168.227 15.075 167.469 15.075 166.669C15.075 165.619 15.3083 164.802 15.775 164.219C16.2417 163.635 16.875 163.202 17.675 162.919C16.9083 162.202 16.2833 161.485 15.8 160.769C15.3167 160.035 15.075 159.252 15.075 158.419C15.075 157.035 15.5333 156.01 16.45 155.344C17.35 154.66 18.6667 154.319 20.4 154.319L29 154.319L29 156.594L20.7 156.594C19.4167 156.594 18.4917 156.802 17.925 157.219C17.3583 157.619 17.075 158.252 17.075 159.119C17.075 159.635 17.25 160.177 17.6 160.744C17.9333 161.294 18.45 161.894 19.15 162.544L29 162.544L29 164.819L20.7 164.819C19.4167 164.819 18.4917 165.027 17.925 165.444C17.3583 165.844 17.075 166.477 17.075 167.344C17.075 167.86 17.25 168.402 17.6 168.969C17.9333 169.535 18.45 170.127 19.15 170.744L29 170.744L29 173.044ZM29 149.899L15.425 149.899L15.425 148.024L17.4 147.799L17.4 147.749C16.75 147.149 16.2 146.499 15.75 145.799C15.3 145.083 15.075 144.324 15.075 143.524C15.075 142.474 15.3083 141.658 15.775 141.074C16.2417 140.491 16.875 140.058 17.675 139.774C16.9083 139.058 16.2833 138.341 15.8 137.624C15.3167 136.891 15.075 136.108 15.075 135.274C15.075 133.891 15.5333 132.866 16.45 132.199C17.35 131.516 18.6667 131.174 20.4 131.174L29 131.174L29 133.449L20.7 133.449C19.4167 133.449 18.4917 133.658 17.925 134.074C17.3583 134.474 17.075 135.108 17.075 135.974C17.075 136.491 17.25 137.033 17.6 137.599C17.9333 138.149 18.45 138.749 19.15 139.399L29 139.399L29 141.674L20.7 141.674C19.4167 141.674 18.4917 141.883 17.925 142.299C17.3583 142.699 17.075 143.333 17.075 144.199C17.075 144.716 17.25 145.258 17.6 145.824C17.9333 146.391 18.45 146.983 19.15 147.599L29 147.599L29 149.899Z" fill="#4A4A4A"/>
<path d="M168.155 380V378.65C169.955 376.867 171.48 375.3 172.73 373.95C173.98 372.583 174.93 371.358 175.58 370.275C176.23 369.175 176.555 368.142 176.555 367.175C176.555 366.492 176.43 365.892 176.18 365.375C175.946 364.842 175.58 364.433 175.08 364.15C174.58 363.85 173.946 363.7 173.18 363.7C172.43 363.7 171.73 363.908 171.08 364.325C170.446 364.742 169.88 365.242 169.38 365.825L168.055 364.55C168.788 363.717 169.58 363.058 170.43 362.575C171.28 362.092 172.288 361.85 173.455 361.85C174.555 361.85 175.496 362.067 176.28 362.5C177.08 362.933 177.696 363.542 178.13 364.325C178.58 365.108 178.805 366.025 178.805 367.075C178.805 368.192 178.488 369.325 177.855 370.475C177.221 371.625 176.355 372.833 175.255 374.1C174.155 375.35 172.905 376.717 171.505 378.2C171.971 378.167 172.471 378.133 173.005 378.1C173.538 378.05 174.038 378.025 174.505 378.025H179.68V380H168.155ZM183.122 380V378.1H187.222V364.95H183.947V363.5C184.764 363.35 185.472 363.167 186.072 362.95C186.689 362.733 187.247 362.475 187.747 362.175H189.497V378.1H193.172V380H183.122ZM201.739 380.325C200.556 380.325 199.539 379.967 198.689 379.25C197.839 378.533 197.181 377.483 196.714 376.1C196.264 374.717 196.039 373.025 196.039 371.025C196.039 369.042 196.264 367.367 196.714 366C197.181 364.633 197.839 363.6 198.689 362.9C199.539 362.2 200.556 361.85 201.739 361.85C202.922 361.85 203.939 362.2 204.789 362.9C205.639 363.6 206.289 364.633 206.739 366C207.206 367.367 207.439 369.042 207.439 371.025C207.439 373.025 207.206 374.717 206.739 376.1C206.289 377.483 205.639 378.533 204.789 379.25C203.939 379.967 202.922 380.325 201.739 380.325ZM201.739 378.475C202.439 378.475 203.047 378.217 203.564 377.7C204.097 377.183 204.506 376.375 204.789 375.275C205.089 374.175 205.239 372.758 205.239 371.025C205.239 369.292 205.089 367.883 204.789 366.8C204.506 365.717 204.097 364.925 203.564 364.425C203.047 363.925 202.439 363.675 201.739 363.675C201.056 363.675 200.447 363.925 199.914 364.425C199.381 364.925 198.964 365.717 198.664 366.8C198.381 367.883 198.239 369.292 198.239 371.025C198.239 372.758 198.381 374.175 198.664 375.275C198.964 376.375 199.381 377.183 199.914 377.7C200.447 378.217 201.056 378.475 201.739 378.475ZM210.956 380V366.425H212.831L213.056 368.4H213.106C213.706 367.75 214.356 367.2 215.056 366.75C215.773 366.3 216.531 366.075 217.331 366.075C218.381 366.075 219.198 366.308 219.781 366.775C220.365 367.242 220.798 367.875 221.081 368.675C221.798 367.908 222.515 367.283 223.231 366.8C223.965 366.317 224.748 366.075 225.581 366.075C226.965 366.075 227.99 366.533 228.656 367.45C229.34 368.35 229.681 369.667 229.681 371.4V380H227.406V371.7C227.406 370.417 227.198 369.492 226.781 368.925C226.381 368.358 225.748 368.075 224.881 368.075C224.365 368.075 223.823 368.25 223.256 368.6C222.706 368.933 222.106 369.45 221.456 370.15V380H219.181V371.7C219.181 370.417 218.973 369.492 218.556 368.925C218.156 368.358 217.523 368.075 216.656 368.075C216.14 368.075 215.598 368.25 215.031 368.6C214.465 368.933 213.873 369.45 213.256 370.15V380H210.956ZM234.101 380V366.425H235.976L236.201 368.4H236.251C236.851 367.75 237.501 367.2 238.201 366.75C238.917 366.3 239.676 366.075 240.476 366.075C241.526 366.075 242.342 366.308 242.926 366.775C243.509 367.242 243.942 367.875 244.226 368.675C244.942 367.908 245.659 367.283 246.376 366.8C247.109 366.317 247.892 366.075 248.726 366.075C250.109 366.075 251.134 366.533 251.801 367.45C252.484 368.35 252.826 369.667 252.826 371.4V380H250.551V371.7C250.551 370.417 250.342 369.492 249.926 368.925C249.526 368.358 248.892 368.075 248.026 368.075C247.509 368.075 246.967 368.25 246.401 368.6C245.851 368.933 245.251 369.45 244.601 370.15V380H242.326V371.7C242.326 370.417 242.117 369.492 241.701 368.925C241.301 368.358 240.667 368.075 239.801 368.075C239.284 368.075 238.742 368.25 238.176 368.6C237.609 368.933 237.017 369.45 236.401 370.15V380H234.101Z" fill="#4A4A4A"/>
<path d="M731.155 380V378.65C732.955 376.867 734.48 375.3 735.73 373.95C736.98 372.583 737.93 371.358 738.58 370.275C739.23 369.175 739.555 368.142 739.555 367.175C739.555 366.492 739.43 365.892 739.18 365.375C738.946 364.842 738.58 364.433 738.08 364.15C737.58 363.85 736.946 363.7 736.18 363.7C735.43 363.7 734.73 363.908 734.08 364.325C733.446 364.742 732.88 365.242 732.38 365.825L731.055 364.55C731.788 363.717 732.58 363.058 733.43 362.575C734.28 362.092 735.288 361.85 736.455 361.85C737.555 361.85 738.496 362.067 739.28 362.5C740.08 362.933 740.696 363.542 741.13 364.325C741.58 365.108 741.805 366.025 741.805 367.075C741.805 368.192 741.488 369.325 740.855 370.475C740.221 371.625 739.355 372.833 738.255 374.1C737.155 375.35 735.905 376.717 734.505 378.2C734.971 378.167 735.471 378.133 736.005 378.1C736.538 378.05 737.038 378.025 737.505 378.025H742.68V380H731.155ZM752.422 380V368.025C752.422 367.575 752.439 367.017 752.472 366.35C752.505 365.667 752.53 365.092 752.547 364.625H752.447C752.214 365.042 751.972 365.458 751.722 365.875C751.489 366.275 751.239 366.7 750.972 367.15L746.797 373.25H757.022V375.075H744.422V373.575L752.047 362.175H754.572V380H752.422ZM764.739 380.325C763.556 380.325 762.539 379.967 761.689 379.25C760.839 378.533 760.181 377.483 759.714 376.1C759.264 374.717 759.039 373.025 759.039 371.025C759.039 369.042 759.264 367.367 759.714 366C760.181 364.633 760.839 363.6 761.689 362.9C762.539 362.2 763.556 361.85 764.739 361.85C765.922 361.85 766.939 362.2 767.789 362.9C768.639 363.6 769.289 364.633 769.739 366C770.206 367.367 770.439 369.042 770.439 371.025C770.439 373.025 770.206 374.717 769.739 376.1C769.289 377.483 768.639 378.533 767.789 379.25C766.939 379.967 765.922 380.325 764.739 380.325ZM764.739 378.475C765.439 378.475 766.047 378.217 766.564 377.7C767.097 377.183 767.506 376.375 767.789 375.275C768.089 374.175 768.239 372.758 768.239 371.025C768.239 369.292 768.089 367.883 767.789 366.8C767.506 365.717 767.097 364.925 766.564 364.425C766.047 363.925 765.439 363.675 764.739 363.675C764.056 363.675 763.447 363.925 762.914 364.425C762.381 364.925 761.964 365.717 761.664 366.8C761.381 367.883 761.239 369.292 761.239 371.025C761.239 372.758 761.381 374.175 761.664 375.275C761.964 376.375 762.381 377.183 762.914 377.7C763.447 378.217 764.056 378.475 764.739 378.475ZM773.956 380V366.425H775.831L776.056 368.4H776.106C776.706 367.75 777.356 367.2 778.056 366.75C778.773 366.3 779.531 366.075 780.331 366.075C781.381 366.075 782.198 366.308 782.781 366.775C783.365 367.242 783.798 367.875 784.081 368.675C784.798 367.908 785.515 367.283 786.231 366.8C786.965 366.317 787.748 366.075 788.581 366.075C789.965 366.075 790.99 366.533 791.656 367.45C792.34 368.35 792.681 369.667 792.681 371.4V380H790.406V371.7C790.406 370.417 790.198 369.492 789.781 368.925C789.381 368.358 788.748 368.075 787.881 368.075C787.365 368.075 786.823 368.25 786.256 368.6C785.706 368.933 785.106 369.45 784.456 370.15V380H782.181V371.7C782.181 370.417 781.973 369.492 781.556 368.925C781.156 368.358 780.523 368.075 779.656 368.075C779.14 368.075 778.598 368.25 778.031 368.6C777.465 368.933 776.873 369.45 776.256 370.15V380H773.956ZM797.101 380V366.425H798.976L799.201 368.4H799.251C799.851 367.75 800.501 367.2 801.201 366.75C801.917 366.3 802.676 366.075 803.476 366.075C804.526 366.075 805.342 366.308 805.926 366.775C806.509 367.242 806.942 367.875 807.226 368.675C807.942 367.908 808.659 367.283 809.376 366.8C810.109 366.317 810.892 366.075 811.726 366.075C813.109 366.075 814.134 366.533 814.801 367.45C815.484 368.35 815.826 369.667 815.826 371.4V380H813.551V371.7C813.551 370.417 813.342 369.492 812.926 368.925C812.526 368.358 811.892 368.075 811.026 368.075C810.509 368.075 809.967 368.25 809.401 368.6C808.851 368.933 808.251 369.45 807.601 370.15V380H805.326V371.7C805.326 370.417 805.117 369.492 804.701 368.925C804.301 368.358 803.667 368.075 802.801 368.075C802.284 368.075 801.742 368.25 801.176 368.6C800.609 368.933 800.017 369.45 799.401 370.15V380H797.101Z" fill="#4A4A4A"/>
<defs>
<clipPath id="clip0_600_364">
<rect width="386" height="308" fill="white" transform="translate(581 5)"/>
</clipPath>
</defs>
</svg>
