<svg width="341" height="61" viewBox="0 0 341 61" fill="none" xmlns="http://www.w3.org/2000/svg">
<path d="M18.565 21.235C16.8317 21.235 15.315 21.4733 14.015 21.95C12.715 22.4267 11.6317 23.0983 10.765 23.965C9.89833 24.7883 9.22667 25.785 8.75 26.955C8.31667 28.0817 8.1 29.295 8.1 30.595C8.1 31.9383 8.33833 33.195 8.815 34.365C9.29167 35.535 9.94167 36.5317 10.765 37.355C11.5883 38.1783 12.585 38.8283 13.755 39.305C14.925 39.7817 16.1817 40.02 17.525 40.02C18.955 40.02 20.2333 39.76 21.36 39.24C22.53 38.6767 23.505 37.94 24.285 37.03C25.1083 36.12 25.7367 35.0583 26.17 33.845C26.6033 32.6317 26.82 31.3533 26.82 30.01V21.235H18.565ZM33.97 30.595C33.97 32.9783 33.5367 35.1667 32.67 37.16C31.8467 39.1533 30.6983 40.8867 29.225 42.36C27.7517 43.79 25.9967 44.9167 23.96 45.74C21.9667 46.5633 19.8 46.975 17.46 46.975C15.12 46.975 12.9317 46.5633 10.895 45.74C8.90167 44.9167 7.16833 43.79 5.695 42.36C4.22167 40.8867 3.05167 39.1533 2.185 37.16C1.36167 35.1667 0.95 32.9783 0.95 30.595C0.95 28.3417 1.31833 26.2183 2.055 24.225C2.79167 22.2317 3.89667 20.4983 5.37 19.025C6.84333 17.5517 8.66333 16.4033 10.83 15.58C13.04 14.7133 15.5967 14.28 18.5 14.28H26.82V0.499997H33.97V30.595ZM44.6305 49.835C46.1472 51.2217 47.6422 52.24 49.1155 52.89C50.5888 53.54 52.3655 53.865 54.4455 53.865C56.3088 53.865 58.0422 53.41 59.6455 52.5C61.2488 51.6333 62.3972 50.29 63.0905 48.47C63.4372 47.6033 63.6105 46.6933 63.6105 45.74C63.6538 44.7433 63.6755 43.79 63.6755 42.88C61.0322 45.0033 57.9988 46.065 54.5755 46.065C52.9722 46.065 51.3905 45.8267 49.8305 45.35C48.3138 44.8733 46.9055 44.2017 45.6055 43.335C44.3488 42.425 43.2438 41.32 42.2905 40.02C41.3805 38.72 40.7522 37.2467 40.4055 35.6C40.0155 33.6933 39.8205 31.7433 39.8205 29.75V14.345H46.9705V29.36C46.9705 30.7033 47.1222 31.9817 47.4255 33.195C47.7288 34.365 48.2055 35.405 48.8555 36.315C49.5055 37.1817 50.3505 37.875 51.3905 38.395C52.4738 38.8717 53.7738 39.11 55.2905 39.11C56.8072 39.11 58.0855 38.8717 59.1255 38.395C60.2088 37.875 61.0755 37.1817 61.7255 36.315C62.4188 35.4483 62.9172 34.43 63.2205 33.26C63.5238 32.0467 63.6755 30.7467 63.6755 29.36V14.345H70.8255V43.855C70.8255 45.1117 70.7388 46.3683 70.5655 47.625C70.4355 48.8817 70.1322 50.095 69.6555 51.265C69.0055 52.825 68.1605 54.19 67.1205 55.36C66.0805 56.53 64.8888 57.5267 63.5455 58.35C62.2022 59.1733 60.7505 59.78 59.1905 60.17C57.6738 60.6033 56.0922 60.82 54.4455 60.82C51.7588 60.82 49.1372 60.3433 46.5805 59.39C44.0238 58.4367 41.7922 57.0067 39.8855 55.1L44.6305 49.835ZM79.8854 36.38C82.6154 39.24 85.8654 40.67 89.6354 40.67C90.1987 40.67 90.8704 40.6267 91.6504 40.54C92.4737 40.4533 93.2537 40.28 93.9904 40.02C94.7704 39.76 95.4204 39.3917 95.9404 38.915C96.4604 38.4383 96.7204 37.81 96.7204 37.03C96.7204 36.12 96.2004 35.4483 95.1604 35.015C94.1637 34.5383 92.9071 34.1483 91.3904 33.845C89.9171 33.4983 88.2921 33.1517 86.5154 32.805C84.7387 32.4583 83.0921 31.9383 81.5754 31.245C80.1021 30.5083 78.8454 29.5117 77.8054 28.255C76.8087 26.9983 76.3104 25.3083 76.3104 23.185C76.3104 21.4517 76.7221 19.9567 77.5454 18.7C78.3687 17.4433 79.4304 16.425 80.7304 15.645C82.0304 14.8217 83.4604 14.2367 85.0204 13.89C86.6237 13.5 88.1621 13.305 89.6354 13.305C90.7187 13.305 91.8671 13.4133 93.0804 13.63C94.2937 13.8033 95.4854 14.085 96.6554 14.475C97.8254 14.865 98.9304 15.3633 99.9704 15.97C101.01 16.5767 101.92 17.27 102.7 18.05L103.87 19.285L99.3204 23.575C97.9771 22.2317 96.4604 21.2783 94.7704 20.715C93.1237 20.1517 91.3687 19.87 89.5054 19.87C89.0287 19.87 88.4437 19.9133 87.7504 20C87.0571 20.0433 86.3854 20.1733 85.7354 20.39C85.1287 20.6067 84.6087 20.9317 84.1754 21.365C83.7421 21.755 83.5254 22.275 83.5254 22.925C83.5254 23.835 84.0237 24.5283 85.0204 25.005C86.0171 25.4383 87.2737 25.8067 88.7904 26.11C90.3071 26.4133 91.9321 26.7383 93.6654 27.085C95.4421 27.4317 97.0887 27.9733 98.6054 28.71C100.122 29.4033 101.379 30.3783 102.375 31.635C103.372 32.8917 103.87 34.5817 103.87 36.705C103.87 38.6117 103.415 40.2367 102.505 41.58C101.639 42.88 100.512 43.9417 99.1254 44.765C97.7387 45.545 96.2004 46.1083 94.5104 46.455C92.8637 46.845 91.2387 47.04 89.6354 47.04C86.7754 47.04 84.1104 46.5633 81.6404 45.61C79.2137 44.6133 77.0471 43.01 75.1404 40.8L79.8854 36.38ZM124.11 40.02C125.496 40.02 126.775 39.76 127.945 39.24C129.158 38.72 130.198 38.0267 131.065 37.16C131.931 36.25 132.603 35.21 133.08 34.04C133.6 32.8267 133.86 31.5267 133.86 30.14C133.86 28.7533 133.6 27.475 133.08 26.305C132.603 25.0917 131.931 24.0517 131.065 23.185C130.198 22.275 129.158 21.56 127.945 21.04C126.775 20.52 125.496 20.26 124.11 20.26C122.723 20.26 121.423 20.52 120.21 21.04C119.04 21.56 118.021 22.275 117.155 23.185C116.288 24.0517 115.616 25.0917 115.14 26.305C114.663 27.475 114.425 28.7533 114.425 30.14C114.425 31.5267 114.663 32.8267 115.14 34.04C115.616 35.21 116.288 36.25 117.155 37.16C118.021 38.0267 119.04 38.72 120.21 39.24C121.423 39.76 122.723 40.02 124.11 40.02ZM107.21 30.14C107.21 27.7133 107.643 25.4817 108.51 23.445C109.376 21.4083 110.568 19.6317 112.085 18.115C113.601 16.5983 115.378 15.4283 117.415 14.605C119.495 13.7383 121.726 13.305 124.11 13.305C126.536 13.305 128.768 13.7383 130.805 14.605C132.885 15.4283 134.661 16.5983 136.135 18.115C137.651 19.6317 138.843 21.4083 139.71 23.445C140.576 25.4817 141.01 27.7133 141.01 30.14C141.01 32.5233 140.576 34.755 139.71 36.835C138.843 38.8717 137.651 40.6483 136.135 42.165C134.661 43.6817 132.885 44.8733 130.805 45.74C128.768 46.5633 126.536 46.975 124.11 46.975C121.726 46.975 119.495 46.5633 117.415 45.74C115.378 44.8733 113.601 43.6817 112.085 42.165C110.568 40.6483 109.376 38.8717 108.51 36.835C107.643 34.755 107.21 32.5233 107.21 30.14ZM145.89 28.775C145.89 26.6517 146.258 24.6583 146.995 22.795C147.732 20.9317 148.772 19.3067 150.115 17.92C151.502 16.49 153.127 15.385 154.99 14.605C156.897 13.7817 159.02 13.37 161.36 13.37C163.7 13.37 165.802 13.7817 167.665 14.605C169.572 15.385 171.197 16.49 172.54 17.92C173.927 19.3067 174.988 20.9317 175.725 22.795C176.462 24.6583 176.83 26.6517 176.83 28.775V46H169.68V30.01C169.68 28.6233 169.528 27.345 169.225 26.175C168.922 25.005 168.445 23.9867 167.795 23.12C167.145 22.2533 166.278 21.5817 165.195 21.105C164.155 20.585 162.877 20.325 161.36 20.325C159.843 20.325 158.543 20.585 157.46 21.105C156.42 21.5817 155.575 22.2533 154.925 23.12C154.275 23.9867 153.798 25.005 153.495 26.175C153.192 27.345 153.04 28.6233 153.04 30.01V46H145.89V28.775Z" fill="black"/>
<path d="M219.174 21.235H200.909V14.345H228.859V21.235L210.594 39.045H228.859V46H200.909V39.045L219.174 21.235ZM249.984 40.02C251.37 40.02 252.649 39.76 253.819 39.24C255.032 38.72 256.072 38.0267 256.939 37.16C257.805 36.25 258.477 35.21 258.954 34.04C259.474 32.8267 259.734 31.5267 259.734 30.14C259.734 28.7533 259.474 27.475 258.954 26.305C258.477 25.0917 257.805 24.0517 256.939 23.185C256.072 22.275 255.032 21.56 253.819 21.04C252.649 20.52 251.37 20.26 249.984 20.26C248.597 20.26 247.297 20.52 246.084 21.04C244.914 21.56 243.895 22.275 243.029 23.185C242.162 24.0517 241.49 25.0917 241.014 26.305C240.537 27.475 240.299 28.7533 240.299 30.14C240.299 31.5267 240.537 32.8267 241.014 34.04C241.49 35.21 242.162 36.25 243.029 37.16C243.895 38.0267 244.914 38.72 246.084 39.24C247.297 39.76 248.597 40.02 249.984 40.02ZM233.084 30.14C233.084 27.7133 233.517 25.4817 234.384 23.445C235.25 21.4083 236.442 19.6317 237.959 18.115C239.475 16.5983 241.252 15.4283 243.289 14.605C245.369 13.7383 247.6 13.305 249.984 13.305C252.41 13.305 254.642 13.7383 256.679 14.605C258.759 15.4283 260.535 16.5983 262.009 18.115C263.525 19.6317 264.717 21.4083 265.584 23.445C266.45 25.4817 266.884 27.7133 266.884 30.14C266.884 32.5233 266.45 34.755 265.584 36.835C264.717 38.8717 263.525 40.6483 262.009 42.165C260.535 43.6817 258.759 44.8733 256.679 45.74C254.642 46.5633 252.41 46.975 249.984 46.975C247.6 46.975 245.369 46.5633 243.289 45.74C241.252 44.8733 239.475 43.6817 237.959 42.165C236.442 40.6483 235.25 38.8717 234.384 36.835C233.517 34.755 233.084 32.5233 233.084 30.14ZM271.764 28.775C271.764 26.6517 272.132 24.6583 272.869 22.795C273.606 20.9317 274.646 19.3067 275.989 17.92C277.376 16.49 279.001 15.385 280.864 14.605C282.771 13.7817 284.894 13.37 287.234 13.37C289.574 13.37 291.676 13.7817 293.539 14.605C295.446 15.385 297.071 16.49 298.414 17.92C299.801 19.3067 300.862 20.9317 301.599 22.795C302.336 24.6583 302.704 26.6517 302.704 28.775V46H295.554V30.01C295.554 28.6233 295.402 27.345 295.099 26.175C294.796 25.005 294.319 23.9867 293.669 23.12C293.019 22.2533 292.152 21.5817 291.069 21.105C290.029 20.585 288.751 20.325 287.234 20.325C285.717 20.325 284.417 20.585 283.334 21.105C282.294 21.5817 281.449 22.2533 280.799 23.12C280.149 23.9867 279.672 25.005 279.369 26.175C279.066 27.345 278.914 28.6233 278.914 30.01V46H271.764V28.775ZM333.345 26.695C333.215 25.5683 332.869 24.5933 332.305 23.77C331.742 22.9033 331.049 22.1883 330.225 21.625C329.402 21.0183 328.47 20.5633 327.43 20.26C326.434 19.9567 325.415 19.805 324.375 19.805C323.335 19.805 322.317 19.9783 321.32 20.325C320.367 20.6283 319.479 21.0833 318.655 21.69C317.875 22.2533 317.204 22.9683 316.64 23.835C316.12 24.7017 315.795 25.655 315.665 26.695H333.345ZM338.285 41.45C336.379 43.3567 334.255 44.765 331.915 45.675C329.575 46.5417 327.062 46.975 324.375 46.975C321.949 46.975 319.717 46.5633 317.68 45.74C315.687 44.8733 313.954 43.7033 312.48 42.23C311.05 40.7133 309.924 38.9367 309.1 36.9C308.32 34.8633 307.93 32.6317 307.93 30.205C307.93 27.865 308.342 25.6767 309.165 23.64C309.989 21.56 311.115 19.7617 312.545 18.245C314.019 16.7283 315.752 15.5367 317.745 14.67C319.782 13.8033 321.992 13.37 324.375 13.37C327.842 13.37 330.919 14.2583 333.605 16.035C336.335 17.8117 338.329 20.325 339.585 23.575C340.149 24.9617 340.495 26.2617 340.625 27.475C340.755 28.6883 340.82 30.0317 340.82 31.505C340.82 31.7217 340.799 31.96 340.755 32.22C340.755 32.4367 340.734 32.6533 340.69 32.87H315.665C315.752 34.04 316.034 35.08 316.51 35.99C317.03 36.9 317.68 37.68 318.46 38.33C319.24 38.98 320.15 39.4783 321.19 39.825C322.23 40.1283 323.292 40.28 324.375 40.28C326.239 40.28 327.95 39.9983 329.51 39.435C331.07 38.8717 332.544 37.9617 333.93 36.705L338.285 41.45Z" fill="#0071E3"/>
</svg>
