<svg width="23" height="18" viewBox="0 0 23 18" fill="none" xmlns="http://www.w3.org/2000/svg">
<path d="M13.3533 9.67224C12.6562 9.67224 12.0702 9.4137 11.5951 8.89662C11.1199 8.37931 10.8822 7.74131 10.8822 6.98261C10.8822 6.22414 11.1199 5.58625 11.5951 5.06894C12.0702 4.55164 12.6562 4.29298 13.3533 4.29298C14.0503 4.29298 14.6364 4.55164 15.1115 5.06894C15.5867 5.58625 15.8244 6.22414 15.8244 6.98261C15.8244 7.74131 15.5867 8.37931 15.1115 8.89662C14.6364 9.4137 14.0503 9.67224 13.3533 9.67224ZM5.70259 13.9656C5.1536 13.9656 4.68369 13.7527 4.29285 13.3271C3.90201 12.9017 3.70659 12.3903 3.70659 11.793V2.17255C3.70659 1.575 3.90201 1.06353 4.29285 0.638116C4.68369 0.212706 5.1536 0 5.70259 0H21.004C21.553 0 22.0229 0.212706 22.4137 0.638116C22.8046 1.06353 23 1.575 23 2.17255V11.793C23 12.3903 22.8046 12.9017 22.4137 13.3271C22.0229 13.7527 21.553 13.9656 21.004 13.9656H5.70259ZM6.93812 12.6207H19.7685C19.7685 12.0189 19.9639 11.5063 20.3547 11.0829C20.7456 10.6598 21.2155 10.4482 21.7645 10.4482V3.51736C21.2116 3.51736 20.7407 3.30466 20.352 2.87925C19.963 2.45361 19.7685 1.94214 19.7685 1.34481H6.93812C6.93812 1.94662 6.7427 2.45911 6.35186 2.88227C5.96102 3.30567 5.49111 3.51736 4.94212 3.51736V10.4482C5.49502 10.4482 5.96586 10.6609 6.35464 11.0863C6.74362 11.5117 6.93812 12.0232 6.93812 12.6207ZM19.341 18H1.996C1.44701 18 0.977098 17.7872 0.586259 17.3615C0.195419 16.9361 0 16.4248 0 15.8275V3.98267H1.23553V15.8275C1.23553 16.0343 1.31471 16.2239 1.47306 16.3963C1.63162 16.5689 1.80593 16.6552 1.996 16.6552H19.341V18ZM5.70259 12.6207H4.94212V1.34481H5.70259C5.49666 1.34481 5.31844 1.42674 5.16791 1.59058C5.01738 1.75442 4.94212 1.94841 4.94212 2.17255V11.793C4.94212 12.0171 5.01738 12.2111 5.16791 12.375C5.31844 12.5388 5.49666 12.6207 5.70259 12.6207Z" fill="#999999"/>
</svg>
