<svg width="23" height="18" viewBox="0 0 23 18" fill="none" xmlns="http://www.w3.org/2000/svg">
<path d="M23 2.07707V15.9229C23 16.5148 22.803 17.0089 22.409 17.4054C22.015 17.8018 21.524 18 20.9358 18H2.06425C1.47605 18 0.984954 17.8018 0.590972 17.4054C0.196991 17.0089 0 16.5148 0 15.9229V2.07707C0 1.48521 0.196991 0.991071 0.590972 0.594643C0.984954 0.198214 1.47605 0 2.06425 0H20.9358C21.524 0 22.015 0.198214 22.409 0.594643C22.803 0.991071 23 1.48521 23 2.07707ZM1.27778 4.89568H21.7222V2.07707C21.7222 1.87907 21.6403 1.69768 21.4766 1.53289C21.3128 1.36811 21.1325 1.28571 20.9358 1.28571H2.06425C1.86747 1.28571 1.6872 1.36811 1.52343 1.53289C1.35966 1.69768 1.27778 1.87907 1.27778 2.07707V4.89568ZM1.27778 7.96146V15.9229C1.27778 16.1209 1.35966 16.3023 1.52343 16.4671C1.6872 16.6319 1.86747 16.7143 2.06425 16.7143H20.9358C21.1325 16.7143 21.3128 16.6319 21.4766 16.4671C21.6403 16.3023 21.7222 16.1209 21.7222 15.9229V7.96146H1.27778Z" fill="#999999"/>
</svg>
