<svg width="36" height="40" viewBox="0 0 36 40" fill="none" xmlns="http://www.w3.org/2000/svg">
<path d="M16.875 37.3264V20.6435L2.25 12.1898V28.0949C2.25 28.3255 2.30775 28.5415 2.42325 28.7429C2.53838 28.9447 2.71144 29.1175 2.94244 29.2613L16.875 37.3264ZM19.125 37.3264L33.0576 29.2613C33.2886 29.1175 33.4616 28.9447 33.5767 28.7429C33.6922 28.5415 33.75 28.3255 33.75 28.0949V12.1898L19.125 20.6435V37.3264ZM16.1826 39.512L1.81744 31.2486C1.24894 30.9233 0.804 30.4812 0.482625 29.9222C0.160875 29.3637 0 28.7589 0 28.1078V11.8922C0 11.2411 0.160875 10.6363 0.482625 10.0778C0.804 9.51884 1.24894 9.0767 1.81744 8.75137L16.1826 0.487997C16.7511 0.162666 17.3569 0 18 0C18.6431 0 19.2489 0.162666 19.8174 0.487997L34.1826 8.75137C34.7511 9.0767 35.196 9.51884 35.5174 10.0778C35.8391 10.6363 36 11.2411 36 11.8922V28.1078C36 28.7589 35.8391 29.3637 35.5174 29.9222C35.196 30.4812 34.7511 30.9233 34.1826 31.2486L19.8174 39.512C19.2489 39.8373 18.6431 40 18 40C17.3569 40 16.7511 39.8373 16.1826 39.512ZM26.3509 13.879L32.4562 10.3715L18.6924 2.41864C18.4614 2.27488 18.2306 2.20301 18 2.20301C17.7694 2.20301 17.5386 2.27488 17.3076 2.41864L11.925 5.50723L26.3509 13.879ZM18 18.7129L24.075 15.1919L9.61875 6.85105L3.54375 10.3715L18 18.7129Z" fill="black"/>
</svg>
