<svg width="17" height="17" viewBox="0 0 17 17" fill="none" xmlns="http://www.w3.org/2000/svg">
<circle cx="8.5" cy="8.5" r="8.5" transform="matrix(-1 0 0 1 17 0)" fill="#EDEDED"/>
<path d="M3.75251 8.24749C3.61583 8.1108 3.61583 7.8892 3.75251 7.75251L5.9799 5.52513C6.11658 5.38844 6.33819 5.38844 6.47487 5.52513C6.61156 5.66181 6.61156 5.88342 6.47487 6.0201L4.49497 8L6.47487 9.9799C6.61156 10.1166 6.61156 10.3382 6.47487 10.4749C6.33819 10.6116 6.11658 10.6116 5.9799 10.4749L3.75251 8.24749ZM14 8.35L4 8.35L4 7.65L14 7.65L14 8.35Z" fill="#6A6A6A"/>
</svg>
