<svg width="95" height="33" viewBox="0 0 95 33" fill="none" xmlns="http://www.w3.org/2000/svg">
<path d="M9.535 11.665C8.60167 11.665 7.785 11.7933 7.085 12.05C6.385 12.3067 5.80167 12.6683 5.335 13.135C4.86833 13.5783 4.50667 14.115 4.25 14.745C4.01667 15.3517 3.9 16.005 3.9 16.705C3.9 17.4283 4.02833 18.105 4.285 18.735C4.54167 19.365 4.89167 19.9017 5.335 20.345C5.77833 20.7883 6.315 21.1383 6.945 21.395C7.575 21.6517 8.25167 21.78 8.975 21.78C9.745 21.78 10.4333 21.64 11.04 21.36C11.67 21.0567 12.195 20.66 12.615 20.17C13.0583 19.68 13.3967 19.1083 13.63 18.455C13.8633 17.8017 13.98 17.1133 13.98 16.39V11.665H9.535ZM17.83 16.705C17.83 17.9883 17.5967 19.1667 17.13 20.24C16.6867 21.3133 16.0683 22.2467 15.275 23.04C14.4817 23.81 13.5367 24.4167 12.44 24.86C11.3667 25.3033 10.2 25.525 8.94 25.525C7.68 25.525 6.50167 25.3033 5.405 24.86C4.33167 24.4167 3.39833 23.81 2.605 23.04C1.81167 22.2467 1.18167 21.3133 0.715 20.24C0.271667 19.1667 0.05 17.9883 0.05 16.705C0.05 15.4917 0.248333 14.3483 0.645 13.275C1.04167 12.2017 1.63667 11.2683 2.43 10.475C3.22333 9.68167 4.20333 9.06333 5.37 8.62C6.56 8.15333 7.93667 7.92 9.5 7.92H13.98V0.499998H17.83V16.705ZM23.5703 27.065C24.3869 27.8117 25.1919 28.36 25.9853 28.71C26.7786 29.06 27.7353 29.235 28.8553 29.235C29.8586 29.235 30.7919 28.99 31.6553 28.5C32.5186 28.0333 33.1369 27.31 33.5103 26.33C33.6969 25.8633 33.7903 25.3733 33.7903 24.86C33.8136 24.3233 33.8253 23.81 33.8253 23.32C32.4019 24.4633 30.7686 25.035 28.9253 25.035C28.0619 25.035 27.2103 24.9067 26.3703 24.65C25.5536 24.3933 24.7953 24.0317 24.0953 23.565C23.4186 23.075 22.8236 22.48 22.3103 21.78C21.8203 21.08 21.4819 20.2867 21.2953 19.4C21.0853 18.3733 20.9803 17.3233 20.9803 16.25V7.955H24.8303V16.04C24.8303 16.7633 24.9119 17.4517 25.0753 18.105C25.2386 18.735 25.4953 19.295 25.8453 19.785C26.1953 20.2517 26.6503 20.625 27.2103 20.905C27.7936 21.1617 28.4936 21.29 29.3103 21.29C30.1269 21.29 30.8153 21.1617 31.3753 20.905C31.9586 20.625 32.4253 20.2517 32.7753 19.785C33.1486 19.3183 33.4169 18.77 33.5803 18.14C33.7436 17.4867 33.8253 16.7867 33.8253 16.04V7.955H37.6753V23.845C37.6753 24.5217 37.6286 25.1983 37.5353 25.875C37.4653 26.5517 37.3019 27.205 37.0453 27.835C36.6953 28.675 36.2403 29.41 35.6803 30.04C35.1203 30.67 34.4786 31.2067 33.7553 31.65C33.0319 32.0933 32.2503 32.42 31.4103 32.63C30.5936 32.8633 29.7419 32.98 28.8553 32.98C27.4086 32.98 25.9969 32.7233 24.6203 32.21C23.2436 31.6967 22.0419 30.9267 21.0153 29.9L23.5703 27.065ZM42.5537 19.82C44.0237 21.36 45.7737 22.13 47.8037 22.13C48.107 22.13 48.4687 22.1067 48.8887 22.06C49.332 22.0133 49.752 21.92 50.1487 21.78C50.5687 21.64 50.9187 21.4417 51.1987 21.185C51.4787 20.9283 51.6187 20.59 51.6187 20.17C51.6187 19.68 51.3387 19.3183 50.7787 19.085C50.242 18.8283 49.5653 18.6183 48.7487 18.455C47.9553 18.2683 47.0803 18.0817 46.1237 17.895C45.167 17.7083 44.2803 17.4283 43.4637 17.055C42.6703 16.6583 41.9937 16.1217 41.4337 15.445C40.897 14.7683 40.6287 13.8583 40.6287 12.715C40.6287 11.7817 40.8503 10.9767 41.2937 10.3C41.737 9.62333 42.3087 9.075 43.0087 8.655C43.7087 8.21167 44.4787 7.89667 45.3187 7.71C46.182 7.5 47.0103 7.395 47.8037 7.395C48.387 7.395 49.0053 7.45333 49.6587 7.57C50.312 7.66333 50.9537 7.815 51.5837 8.025C52.2137 8.235 52.8087 8.50333 53.3687 8.83C53.9287 9.15667 54.4187 9.53 54.8387 9.95L55.4687 10.615L53.0187 12.925C52.2953 12.2017 51.4787 11.6883 50.5687 11.385C49.682 11.0817 48.737 10.93 47.7337 10.93C47.477 10.93 47.162 10.9533 46.7887 11C46.4153 11.0233 46.0537 11.0933 45.7037 11.21C45.377 11.3267 45.097 11.5017 44.8637 11.735C44.6303 11.945 44.5137 12.225 44.5137 12.575C44.5137 13.065 44.782 13.4383 45.3187 13.695C45.8553 13.9283 46.532 14.1267 47.3487 14.29C48.1653 14.4533 49.0403 14.6283 49.9737 14.815C50.9303 15.0017 51.817 15.2933 52.6337 15.69C53.4503 16.0633 54.127 16.5883 54.6637 17.265C55.2003 17.9417 55.4687 18.8517 55.4687 19.995C55.4687 21.0217 55.2237 21.8967 54.7337 22.62C54.267 23.32 53.6603 23.8917 52.9137 24.335C52.167 24.755 51.3387 25.0583 50.4287 25.245C49.542 25.455 48.667 25.56 47.8037 25.56C46.2637 25.56 44.8287 25.3033 43.4987 24.79C42.192 24.2533 41.0253 23.39 39.9987 22.2L42.5537 19.82ZM66.3668 21.78C67.1135 21.78 67.8018 21.64 68.4318 21.36C69.0851 21.08 69.6451 20.7067 70.1118 20.24C70.5785 19.75 70.9401 19.19 71.1968 18.56C71.4768 17.9067 71.6168 17.2067 71.6168 16.46C71.6168 15.7133 71.4768 15.025 71.1968 14.395C70.9401 13.7417 70.5785 13.1817 70.1118 12.715C69.6451 12.225 69.0851 11.84 68.4318 11.56C67.8018 11.28 67.1135 11.14 66.3668 11.14C65.6201 11.14 64.9201 11.28 64.2668 11.56C63.6368 11.84 63.0885 12.225 62.6218 12.715C62.1551 13.1817 61.7935 13.7417 61.5368 14.395C61.2801 15.025 61.1518 15.7133 61.1518 16.46C61.1518 17.2067 61.2801 17.9067 61.5368 18.56C61.7935 19.19 62.1551 19.75 62.6218 20.24C63.0885 20.7067 63.6368 21.08 64.2668 21.36C64.9201 21.64 65.6201 21.78 66.3668 21.78ZM57.2668 16.46C57.2668 15.1533 57.5001 13.9517 57.9668 12.855C58.4335 11.7583 59.0751 10.8017 59.8918 9.985C60.7085 9.16833 61.6651 8.53833 62.7618 8.095C63.8818 7.62833 65.0835 7.395 66.3668 7.395C67.6735 7.395 68.8751 7.62833 69.9718 8.095C71.0918 8.53833 72.0485 9.16833 72.8418 9.985C73.6585 10.8017 74.3001 11.7583 74.7668 12.855C75.2335 13.9517 75.4668 15.1533 75.4668 16.46C75.4668 17.7433 75.2335 18.945 74.7668 20.065C74.3001 21.1617 73.6585 22.1183 72.8418 22.935C72.0485 23.7517 71.0918 24.3933 69.9718 24.86C68.8751 25.3033 67.6735 25.525 66.3668 25.525C65.0835 25.525 63.8818 25.3033 62.7618 24.86C61.6651 24.3933 60.7085 23.7517 59.8918 22.935C59.0751 22.1183 58.4335 21.1617 57.9668 20.065C57.5001 18.945 57.2668 17.7433 57.2668 16.46ZM78.0945 15.725C78.0945 14.5817 78.2929 13.5083 78.6895 12.505C79.0862 11.5017 79.6462 10.6267 80.3695 9.88C81.1162 9.11 81.9912 8.515 82.9945 8.095C84.0212 7.65167 85.1645 7.43 86.4245 7.43C87.6845 7.43 88.8162 7.65167 89.8195 8.095C90.8462 8.515 91.7212 9.11 92.4445 9.88C93.1912 10.6267 93.7629 11.5017 94.1595 12.505C94.5562 13.5083 94.7545 14.5817 94.7545 15.725V25H90.9045V16.39C90.9045 15.6433 90.8229 14.955 90.6595 14.325C90.4962 13.695 90.2395 13.1467 89.8895 12.68C89.5395 12.2133 89.0729 11.8517 88.4895 11.595C87.9295 11.315 87.2412 11.175 86.4245 11.175C85.6079 11.175 84.9079 11.315 84.3245 11.595C83.7645 11.8517 83.3095 12.2133 82.9595 12.68C82.6095 13.1467 82.3529 13.695 82.1895 14.325C82.0262 14.955 81.9445 15.6433 81.9445 16.39V25H78.0945V15.725Z" fill="white"/>
</svg>
