<svg width="32" height="36" viewBox="0 0 32 36" fill="none" xmlns="http://www.w3.org/2000/svg">
<path d="M4 36C2.87167 36 1.923 35.6069 1.154 34.8208C0.384667 34.035 0 33.0718 0 31.9311V27.8254H6V0L8.5385 1.80812L11.154 0L13.769 1.80812L16.3845 0L19 1.80812L21.6155 0L24.231 1.80812L26.846 0L29.4615 1.80812L32 0V31.9127C32 33.0657 31.6153 34.035 30.846 34.8208C30.077 35.6069 29.1283 36 28 36H4ZM28 33.9563C28.5667 33.9563 29.0417 33.7605 29.425 33.3688C29.8083 32.9771 30 32.4917 30 31.9127V3.30152H8V27.8254H26V31.9127C26 32.4917 26.1917 32.9771 26.575 33.3688C26.9583 33.7605 27.4333 33.9563 28 33.9563ZM10.769 10.4543V8.41066H21.4615V10.4543H10.769ZM10.769 16.5853V14.5416H21.4615V16.5853H10.769ZM25.769 11.0046C25.3563 11.0046 24.9968 10.8481 24.6905 10.535C24.3842 10.2217 24.231 9.85416 24.231 9.43249C24.231 9.01081 24.3842 8.6433 24.6905 8.32994C24.9968 8.01692 25.3563 7.86041 25.769 7.86041C26.182 7.86041 26.5417 8.01692 26.848 8.32994C27.1543 8.6433 27.3075 9.01081 27.3075 9.43249C27.3075 9.85416 27.1543 10.2217 26.848 10.535C26.5417 10.8481 26.182 11.0046 25.769 11.0046ZM25.769 17.1355C25.3563 17.1355 24.9968 16.979 24.6905 16.666C24.3842 16.3526 24.231 15.9851 24.231 15.5635C24.231 15.1418 24.3842 14.7743 24.6905 14.4609C24.9968 14.1479 25.3563 13.9914 25.769 13.9914C26.182 13.9914 26.5417 14.1479 26.848 14.4609C27.1543 14.7743 27.3075 15.1418 27.3075 15.5635C27.3075 15.9851 27.1543 16.3526 26.848 16.666C26.5417 16.979 26.182 17.1355 25.769 17.1355ZM4 33.9563H24V29.869H2V31.9127C2 32.4917 2.19167 32.9771 2.575 33.3688C2.95833 33.7605 3.43333 33.9563 4 33.9563Z" fill="black"/>
</svg>
