<svg width="24" height="27" viewBox="0 0 24 27" fill="none" xmlns="http://www.w3.org/2000/svg">
<path d="M2.42325 27C1.752 27 1.18025 26.764 0.708 26.292C0.236 25.8198 0 25.248 0 24.5768V8.42325C0 7.752 0.236 7.18025 0.708 6.708C1.18025 6.236 1.752 6 2.42325 6H6C6 4.32875 6.58225 2.911 7.74675 1.74675C8.911 0.582251 10.3288 0 12 0C13.6713 0 15.089 0.582251 16.2533 1.74675C17.4177 2.911 18 4.32875 18 6H21.5768C22.248 6 22.8197 6.236 23.292 6.708C23.764 7.18025 24 7.752 24 8.42325V24.5768C24 25.248 23.764 25.8198 23.292 26.292C22.8197 26.764 22.248 27 21.5768 27H2.42325ZM2.42325 25.5H21.5768C21.8078 25.5 22.0194 25.4039 22.2116 25.2116C22.4039 25.0194 22.5 24.8078 22.5 24.5768V8.42325C22.5 8.19225 22.4039 7.98063 22.2116 7.78838C22.0194 7.59613 21.8078 7.5 21.5768 7.5H2.42325C2.19225 7.5 1.98063 7.59613 1.78838 7.78838C1.59613 7.98063 1.5 8.19225 1.5 8.42325V24.5768C1.5 24.8078 1.59613 25.0194 1.78838 25.2116C1.98063 25.4039 2.19225 25.5 2.42325 25.5ZM12 15C13.6713 15 15.089 14.4178 16.2533 13.2533C17.4177 12.089 18 10.6713 18 9H16.5C16.5 10.25 16.0625 11.3125 15.1875 12.1875C14.3125 13.0625 13.25 13.5 12 13.5C10.75 13.5 9.6875 13.0625 8.8125 12.1875C7.9375 11.3125 7.5 10.25 7.5 9H6C6 10.6713 6.58225 12.089 7.74675 13.2533C8.911 14.4178 10.3288 15 12 15ZM7.5 6H16.5C16.5 4.75 16.0625 3.6875 15.1875 2.8125C14.3125 1.9375 13.25 1.5 12 1.5C10.75 1.5 9.6875 1.9375 8.8125 2.8125C7.9375 3.6875 7.5 4.75 7.5 6Z" fill="white"/>
</svg>
