<svg width="44" height="30" viewBox="0 0 44 30" fill="none" xmlns="http://www.w3.org/2000/svg">
<path d="M8.52766 30C6.97459 30 5.65754 29.4595 4.57651 28.3784C3.49583 27.2977 2.95549 25.9853 2.95549 24.4412H0V3.43346C0 2.4551 0.32904 1.63827 0.987121 0.982962C1.6452 0.327654 2.46549 0 3.44799 0H31.6866V7.68411H36.6121L44 17.5748V24.4412H40.552C40.552 25.9853 40.0085 27.2977 38.9214 28.3784C37.834 29.4595 36.5137 30 34.9606 30C33.4072 30 32.0902 29.4595 31.0095 28.3784C29.9284 27.2977 29.3879 25.9853 29.3879 24.4412H14.1196C14.1196 25.9945 13.5759 27.3092 12.4884 28.3853C11.4013 29.4618 10.0811 30 8.52766 30ZM8.53727 27.8747C9.49771 27.8747 10.3125 27.5415 10.9816 26.8752C11.6507 26.209 11.9853 25.3976 11.9853 24.4412C11.9853 23.4848 11.6507 22.6735 10.9816 22.0072C10.3125 21.3409 9.49771 21.0078 8.53727 21.0078C7.57682 21.0078 6.76205 21.3409 6.09294 22.0072C5.42419 22.6735 5.08981 23.4848 5.08981 24.4412C5.08981 25.3976 5.42419 26.209 6.09294 26.8752C6.76205 27.5415 7.57682 27.8747 8.53727 27.8747ZM2.13432 22.3159H3.51362C3.8174 21.3786 4.43582 20.5721 5.36887 19.8962C6.30192 19.2204 7.35806 18.8824 8.53727 18.8824C9.66205 18.8824 10.7047 19.2136 11.6651 19.876C12.6255 20.5381 13.2577 21.3514 13.5614 22.3159H29.5523V2.12532H3.44799C3.11966 2.12532 2.81854 2.26152 2.54464 2.53392C2.27109 2.80631 2.13432 3.10616 2.13432 3.43346V22.3159ZM34.9702 27.8747C35.9307 27.8747 36.7453 27.5415 37.414 26.8752C38.0831 26.209 38.4177 25.3976 38.4177 24.4412C38.4177 23.4848 38.0831 22.6735 37.414 22.0072C36.7453 21.3409 35.9307 21.0078 34.9702 21.0078C34.0098 21.0078 33.195 21.3409 32.5259 22.0072C31.8568 22.6735 31.5223 23.4848 31.5223 24.4412C31.5223 25.3976 31.8568 26.209 32.5259 26.8752C33.195 27.5415 34.0098 27.8747 34.9702 27.8747ZM31.6866 18.0652H41.7424L35.4627 9.80943H31.6866V18.0652Z" fill="black"/>
</svg>
