<svg height="56" class="dd-icon-conversation" viewBox="0 0 42 56" width="42" xmlns="http://www.w3.org/2000/svg">
              <path d="m0 0h42v56h-42z" fill="none"></path>
              <path d="m27.1738 43.9375h-22.3476c-2.8711 0-4.3262-1.0801-4.3262-3.2104 0-5.3623 6.2275-11.1035 15.499-11.1035s15.501 5.7412 15.501 11.1035c0 2.1304-1.4551 3.2104-4.3262 3.2104zm-11.1738-17.4402c-4.1992 0-7.4883-3.5552-7.4883-8.0942 0-4.3564 3.3594-7.9004 7.4883-7.9004s7.4883 3.5439 7.4883 7.9004c0 4.5391-3.2891 8.0942-7.4883 8.0942zm14.0811.162c2.2051-2.1792 3.4189-5.0859 3.4189-8.1846 0-3.0581-1.1865-5.9375-3.3418-8.1074-.4277-.4302-1.124-.4341-1.5557-.0049-.4307.4277-.4336 1.1245-.0049 1.5557 1.7432 1.7544 2.7031 4.083 2.7031 6.5566 0 2.5063-.9824 4.8574-2.7666 6.6201-.4316.4268-.4355 1.1235-.0088 1.5557.2148.2173.499.3267.7822.3267.2793 0 .5586-.106.7734-.3179zm6.0537 5.1167c3.46-3.5898 5.3652-8.314 5.3652-13.3013 0-4.9595-1.8867-9.6646-5.3135-13.248-.418-.439-1.1152-.4546-1.5547-.0347s-.4551 1.1162-.0352 1.5552c3.0332 3.1724 4.7041 7.3369 4.7041 11.7275 0 4.415-1.6875 8.5967-4.75 11.7749-.4219.4375-.4092 1.1338.0283 1.5552.2139.2056.4893.3081.7637.3081.2881 0 .5762-.1128.792-.3369z"></path>
            </svg>