<svg class="dd-icon-adaptive" height="56" viewBox="0 0 40 56" width="40" xmlns="http://www.w3.org/2000/svg">
                <path d="m0 0h40v56h-40z" fill="none"></path>
                <path d="m26.0635 8.4878c-.3763-2.0922-.2559-2.1675-2.5738-2.5588-.2408-.0452-.3763-.2258-.3763-.4365 0-.2258.1355-.3913.4064-.4214 2.2879-.3612 2.1675-.4365 2.5437-2.5588.0602-.2408.1957-.3913.4365-.3913.2107 0 .3913.1505.4214.3612.3913 2.1373.2709 2.2126 2.604 2.5889.2107.0301.3612.2107.3612.4214s-.1505.3913-.3612.4365c-2.318.3612-2.2277.4365-2.604 2.5588-.0301.2258-.1957.3913-.4214.3913s-.3763-.1505-.4365-.3913zm5.7845 10.7553c-.7923-4.5394-1.4196-5.4473-6.0746-6.0911-.3466-.066-.5777-.3136-.5777-.6438s.2311-.5777.5777-.6438c4.6055-.6933 5.3318-1.5517 6.0746-6.0911.066-.3301.3136-.5777.6438-.5777s.5777.2476.6438.5612c.8254 4.5394 1.4031 5.4638 6.0746 6.1076.3466.0495.5943.3136.5943.6438s-.2476.5777-.5943.6438c-4.6055.6438-5.3648 1.6012-6.0746 6.0746-.066.3466-.3136.5777-.6438.5777-.3136 0-.5777-.2146-.6438-.5612zm-4.6741 24.6944h-22.3477c-2.8711 0-4.3262-1.0801-4.3262-3.2104 0-5.3623 6.2275-11.1035 15.499-11.1035s15.501 5.7412 15.501 11.1035c0 2.1304-1.4551 3.2104-4.3262 3.2104zm-11.1738-17.4402c-4.1992 0-7.4883-3.5552-7.4883-8.0942 0-4.3564 3.3594-7.9004 7.4883-7.9004s7.4883 3.5439 7.4883 7.9004c0 4.5391-3.2891 8.0942-7.4883 8.0942z"></path>
              </svg>